<?xml version="1.0" standalone="no"?>
<!DOCTYPE svg PUBLIC "-//W3C//DTD SVG 20010904//EN"
 "http://www.w3.org/TR/2001/REC-SVG-20010904/DTD/svg10.dtd">
<svg version="1.0" xmlns="http://www.w3.org/2000/svg"
 width="1280.000000pt" height="640.000000pt" viewBox="0 0 1280.000000 640.000000"
 preserveAspectRatio="xMidYMid meet">
<metadata>
Created by potrace 1.16, written by Peter Selinger 2001-2019
</metadata>
<g transform="translate(0.000000,640.000000) scale(0.100000,-0.100000)"
fill="#000000" stroke="none">
<path d="M0 6275 l0 -126 33 6 c17 3 66 8 107 10 41 2 89 6 105 9 65 10 160
20 169 18 5 -2 32 2 60 7 28 6 76 13 106 16 61 7 280 37 365 50 17 3 53 7 80
10 28 3 61 8 75 10 14 3 39 7 55 9 17 2 66 9 110 15 44 6 100 13 125 16 48 6
225 31 300 43 25 4 69 7 98 7 28 0 52 3 52 7 0 4 15 9 33 11 17 2 -397 5 -920
5 l-953 2 0 -125z"/>
<path d="M2185 6390 l-30 -7 40 -18 c22 -9 123 -56 225 -102 102 -47 237 -108
300 -135 63 -28 123 -56 135 -63 11 -7 64 -32 118 -55 53 -24 97 -47 97 -51 0
-5 10 -9 22 -9 11 0 46 -12 77 -27 l56 -28 -83 -3 c-59 -2 -84 -7 -88 -17 -4
-11 -12 -9 -40 7 -32 19 -41 19 -112 9 -66 -10 -161 -21 -398 -48 l-51 -5 -96
133 c-155 215 -197 273 -210 292 -6 9 -54 35 -106 57 l-93 41 -102 -11 c-55
-6 -166 -20 -246 -31 -80 -11 -203 -26 -275 -34 -71 -8 -269 -33 -440 -56
-171 -22 -326 -42 -345 -44 -19 -2 -145 -17 -280 -34 -135 -17 -248 -31 -252
-31 -5 0 -8 -193 -8 -430 l0 -429 87 -28 c49 -15 93 -28 100 -28 6 0 19 -8 30
-17 10 -9 45 -23 79 -32 72 -19 138 -45 131 -52 -3 -3 -14 -1 -25 5 -12 6 -34
11 -49 11 -16 0 -46 9 -68 20 -22 11 -49 20 -61 20 -12 0 -24 4 -26 8 -3 8
-138 63 -155 64 -4 0 -16 4 -25 9 -16 9 -18 3 -18 -67 0 -70 3 -81 37 -138 29
-47 199 -314 207 -323 4 -5 493 -135 594 -158 34 -8 67 -17 74 -21 18 -11 70
-15 63 -4 -3 5 3 14 14 19 25 14 34 14 25 0 -4 -7 0 -9 14 -5 12 4 23 2 28 -5
4 -7 3 -9 -4 -5 -6 3 -14 2 -17 -4 -5 -8 -11 -8 -19 -1 -7 6 -16 8 -19 4 -12
-11 -8 -23 7 -23 8 0 27 -5 43 -12 28 -11 77 -18 68 -9 -8 7 126 82 136 75 5
-3 9 -1 9 3 0 5 8 9 19 9 12 0 17 -5 13 -15 -3 -9 -1 -12 6 -7 8 5 12 -2 12
-19 0 -15 -4 -24 -10 -20 -5 3 -10 1 -10 -5 0 -6 -4 -8 -10 -5 -5 3 -10 2 -10
-4 0 -6 -7 -8 -15 -5 -8 4 -23 3 -32 -1 -17 -8 -25 -9 -68 -14 -30 -3 30 -27
129 -51 44 -11 110 -29 146 -40 36 -11 66 -20 67 -20 4 0 13 85 18 175 9 160
14 186 34 176 9 -5 35 -6 61 -1 25 5 128 16 230 25 102 9 264 25 360 35 96 10
176 17 178 15 2 -2 -8 -20 -21 -42 -14 -21 -44 -71 -67 -111 -25 -45 -51 -77
-65 -82 -14 -5 -58 -10 -99 -11 l-76 -2 -47 53 c-26 29 -55 63 -66 76 -10 13
-27 24 -37 24 -12 0 2 -21 51 -72 38 -40 69 -76 69 -80 0 -5 -8 -8 -17 -8 -10
0 -53 37 -95 82 -42 46 -77 77 -78 70 0 -8 28 -43 62 -78 71 -75 69 -84 -24
-84 -31 0 -63 -3 -72 -6 -21 -8 -32 40 -17 73 9 19 9 28 1 33 -7 4 -8 18 -4
33 5 23 3 27 -15 27 -12 0 -24 -7 -27 -15 -5 -13 -8 -13 -27 0 -33 23 -37 19
-37 -35 l0 -50 34 0 c28 0 35 4 39 23 2 12 5 2 5 -23 2 -57 -4 -67 -51 -75
-28 -5 -37 -12 -37 -27 0 -22 -13 -22 310 7 91 8 184 17 208 19 23 2 42 0 42
-4 0 -10 -52 -20 -105 -20 -23 0 -56 -3 -74 -6 l-31 -6 55 -61 c30 -33 55 -67
55 -74 0 -8 -11 -35 -23 -61 -13 -26 -41 -92 -62 -147 -21 -55 -44 -107 -52
-116 -8 -10 -20 -39 -28 -65 -18 -66 -52 -158 -81 -222 -13 -29 -24 -55 -24
-58 0 -3 -6 -20 -14 -37 -8 -18 -19 -48 -25 -67 -21 -76 -89 -267 -104 -297
-20 -37 -48 -43 -191 -40 l-89 2 2 79 c2 50 -1 76 -8 72 -16 -10 -23 12 -10
35 8 15 13 18 19 10 4 -7 10 43 13 110 4 68 4 126 0 130 -10 8 -239 62 -358
84 -49 9 -115 22 -145 30 -122 29 -117 37 -42 -77 38 -57 77 -117 87 -135 50
-81 158 -233 165 -233 5 0 12 5 16 12 5 8 1 9 -12 5 -14 -5 -12 -2 6 13 33 26
40 25 40 -6 0 -14 4 -23 10 -19 16 10 24 -25 10 -38 -10 -9 -11 -9 -6 1 4 6 4
12 -1 13 -4 0 -20 2 -35 3 l-27 2 30 -56 c17 -30 69 -112 116 -182 l86 -127
-7 -118 c-5 -88 -11 -121 -22 -130 -14 -10 -13 -13 6 -23 12 -6 24 -9 27 -6 8
8 21 178 25 329 1 69 5 124 8 122 3 -1 56 4 119 11 137 16 150 11 122 -45 -11
-20 -23 -55 -26 -76 -4 -22 -10 -49 -12 -60 -3 -11 -6 -33 -8 -50 -1 -16 -10
-48 -20 -69 -9 -22 -19 -49 -21 -60 -17 -92 -56 -216 -76 -242 -4 -6 -5 -14
-2 -17 7 -7 -10 -84 -27 -129 -7 -18 -20 -28 -37 -31 l-27 -4 28 -2 c27 -1 28
-3 22 -33 -4 -18 -15 -56 -24 -84 l-17 -51 -23 18 c-30 25 -197 123 -238 140
-18 8 -33 18 -33 22 0 5 -4 6 -9 3 -11 -7 -42 4 -37 13 2 3 -10 6 -27 6 -20 0
-31 5 -30 12 4 16 -9 17 -25 1 -7 -7 -12 -10 -13 -8 0 3 -2 13 -4 22 -2 10 2
15 10 12 17 -7 29 27 13 39 -9 6 -5 7 12 3 14 -3 30 -6 36 -6 7 0 14 -9 17
-20 3 -11 11 -20 17 -20 7 0 10 7 6 16 -3 9 -6 20 -6 25 0 5 -6 9 -13 9 -7 0
-30 9 -52 20 -42 21 -95 27 -95 10 0 -5 -4 -10 -10 -10 -5 0 -7 6 -4 14 7 18
-69 35 -191 43 -49 3 -91 6 -93 8 -2 1 102 58 230 126 277 147 275 146 266
154 -6 6 -66 -25 -398 -206 l-135 -74 -120 -11 c-66 -6 -121 -10 -122 -10 -1
1 132 73 295 160 426 228 423 226 417 236 -6 9 -36 2 -45 -10 -3 -4 -163 -93
-356 -197 -327 -179 -357 -192 -437 -207 -47 -9 -104 -23 -128 -31 -23 -8 -52
-15 -65 -15 -16 0 -24 -6 -24 -16 0 -14 8 -16 43 -11 l42 6 -42 -20 -43 -20 0
-1209 0 -1210 3805 0 3805 0 -6 25 c-4 18 -2 25 8 25 8 0 25 -11 38 -25 23
-24 28 -25 153 -25 l129 0 -7 150 -6 150 55 0 55 0 -5 -117 c-3 -65 -7 -133
-9 -151 l-4 -32 520 0 520 0 -3 145 c-3 131 -1 145 14 145 20 0 26 -58 19
-180 -5 -70 -5 -72 -11 -30 l-7 45 -1 -47 c-1 -27 3 -48 8 -48 6 0 9 -6 8 -12
-2 -8 11 -14 34 -16 l37 -3 -4 76 c-2 41 -6 79 -10 84 -3 5 4 7 15 4 27 -7 33
-34 25 -104 l-7 -59 1816 0 1816 0 0 1176 0 1177 -50 -6 c-31 -4 -48 -2 -45 3
4 6 27 11 53 11 47 2 47 2 -16 11 -56 9 -66 8 -85 -8 -20 -17 -20 -17 1 7 l23
27 -20 14 c-12 8 -18 18 -14 21 3 4 -3 7 -14 7 -16 0 -20 -5 -16 -20 5 -19 3
-20 -69 -35 -14 -2 -18 4 -18 25 0 29 15 40 54 40 12 0 26 4 32 9 5 5 23 11
39 14 17 2 50 13 75 25 25 12 51 22 58 22 9 0 12 45 12 190 l0 189 -37 7 c-21
3 -49 17 -63 29 -14 13 -34 26 -45 29 -11 4 -32 30 -46 59 -26 51 -28 52 -65
48 -95 -8 -89 -11 -92 44 -1 28 -9 120 -16 206 -12 137 -17 160 -39 192 -34
50 -56 119 -61 191 -4 61 6 97 36 130 10 11 18 23 18 28 0 15 80 58 134 72 30
8 97 18 148 21 135 10 128 5 128 86 l0 69 -57 0 c-79 1 -166 11 -179 21 -6 5
-27 12 -48 16 l-37 8 65 100 c36 55 71 100 78 100 7 1 12 6 10 13 -1 7 2 12 8
12 11 0 73 89 73 106 0 7 5 12 11 11 6 -1 10 6 10 15 -1 10 2 16 6 13 4 -3 19
13 34 35 l26 40 0 446 0 447 -62 -7 c-35 -3 -128 -10 -208 -16 -80 -6 -158
-12 -175 -15 -16 -3 -142 -14 -280 -25 -434 -34 -981 -81 -1335 -115 -91 -8
-192 -17 -225 -20 -33 -2 -112 -9 -175 -14 -351 -32 -590 -53 -630 -56 -25 -2
-97 -8 -160 -14 -63 -6 -142 -13 -175 -15 -116 -8 -550 -46 -587 -52 -21 -3
-38 -11 -38 -18 0 -7 -12 -14 -27 -14 -42 -1 -106 -12 -128 -22 -11 -5 -46
-11 -78 -14 -53 -6 -59 -4 -64 14 -3 11 -9 20 -13 20 -13 0 0 -37 18 -53 19
-17 192 -30 192 -15 0 12 58 10 65 -2 5 -8 11 -8 19 -1 20 17 24 4 15 -45 -5
-25 -5 -53 0 -62 4 -10 9 -46 10 -82 3 -72 7 -85 24 -72 7 5 25 12 41 16 26 6
28 5 17 -8 -11 -13 -11 -19 -1 -31 10 -12 9 -15 -6 -16 -14 -1 -12 -3 6 -8 30
-8 52 7 36 25 -6 6 -18 9 -26 7 -10 -3 -9 -1 3 7 9 6 17 16 17 23 0 7 14 20
30 29 33 19 42 61 14 72 -9 4 -14 13 -10 22 3 8 2 12 -4 9 -6 -3 -10 0 -10 7
0 8 8 14 18 14 14 0 18 -7 16 -23 -2 -24 3 -27 30 -17 9 3 13 10 10 15 -7 12
7 11 26 -1 12 -8 16 -2 21 28 3 20 7 -33 8 -118 1 -110 -3 -160 -11 -168 -9
-9 -9 -12 2 -12 9 0 7 -5 -6 -14 -14 -11 -21 -11 -26 -3 -5 8 -8 8 -8 1 0 -18
-29 -12 -36 8 -3 10 -9 18 -14 18 -5 0 -6 -8 -3 -17 5 -12 1 -11 -15 5 -12 12
-22 27 -22 32 0 6 -5 10 -11 10 -5 0 -7 5 -3 12 4 7 3 8 -4 4 -8 -5 -9 -13 -2
-25 5 -10 6 -21 3 -25 -3 -3 1 -6 10 -6 9 0 17 -4 17 -9 0 -5 -8 -7 -19 -4
-10 3 -22 -1 -26 -8 -5 -8 -4 -10 3 -5 7 4 12 3 12 -2 0 -5 -11 -14 -25 -20
-18 -8 -25 -8 -25 -1 0 8 -4 8 -14 0 -11 -9 -15 -9 -20 1 -3 7 -5 -32 -4 -87
l1 -100 -34 -1 c-19 -1 -42 2 -51 7 -16 9 -16 6 -3 -38 8 -27 15 -49 15 -50 0
-2 16 -3 35 -3 32 0 35 2 35 29 0 21 6 32 21 36 16 5 18 9 8 21 -6 8 -10 16
-8 17 33 23 58 35 61 27 2 -6 15 -4 31 5 15 8 25 10 22 5 -8 -13 11 -13 36 1
18 9 19 8 10 -8 -11 -21 2 -53 13 -34 4 6 1 11 -6 12 -7 0 -3 5 10 11 12 6 22
15 22 20 0 5 5 6 10 3 6 -4 8 -12 4 -18 -3 -7 2 -3 10 7 15 18 16 10 16 -110
0 -71 3 -138 6 -149 4 -18 -5 -22 -87 -42 -103 -25 -129 -20 -129 23 0 19 -4
25 -14 21 -8 -3 -17 -1 -20 6 -2 7 -5 -9 -5 -35 -1 -61 -17 -62 -32 -3 -6 25
-14 44 -16 41 -8 -8 10 -146 18 -140 5 3 14 -7 20 -23 6 -15 16 -35 23 -43 18
-21 48 -100 37 -100 -14 0 -91 60 -91 71 0 5 -4 8 -9 4 -5 -3 -24 4 -43 14
-37 23 -162 71 -181 71 -7 0 -13 -9 -13 -20 0 -10 2 -17 5 -14 6 6 51 -112
107 -279 25 -75 52 -143 59 -151 8 -7 17 -38 20 -67 7 -61 44 -220 55 -232 12
-13 97 90 131 158 17 35 36 96 42 134 6 39 14 71 18 71 9 0 16 -101 8 -106
-10 -6 -17 -54 -8 -54 4 0 11 9 14 21 l7 21 15 -22 c10 -14 18 -18 22 -11 11
18 51 0 57 -26 6 -22 11 -24 38 -19 41 8 76 -16 76 -51 0 -18 4 -24 14 -20 8
3 17 1 20 -6 2 -7 5 -3 5 7 1 18 2 18 21 1 11 -10 20 -27 20 -39 0 -15 3 -17
12 -8 7 7 23 12 35 12 29 0 85 -27 96 -46 4 -8 15 -14 22 -14 8 0 15 -5 15
-10 0 -6 8 -10 17 -8 10 2 22 -7 29 -21 11 -22 12 -22 23 -5 11 18 12 18 6 -1
-4 -18 -1 -21 22 -20 16 0 36 -8 45 -18 9 -10 21 -16 26 -13 6 3 15 -1 22 -9
7 -8 18 -15 24 -15 7 0 31 -14 54 -31 23 -17 42 -28 42 -24 0 4 7 2 15 -5 8
-7 15 -9 15 -5 0 3 12 -3 26 -14 15 -12 33 -21 41 -21 19 0 120 -67 126 -83
11 -29 -4 -101 -25 -125 -50 -54 -99 -82 -145 -82 -25 0 -43 5 -43 11 0 6 -7
9 -15 6 -8 -4 -17 -2 -19 2 -3 5 -27 14 -53 21 -27 7 -56 20 -65 28 -10 8 -18
12 -18 7 0 -4 -6 -2 -13 4 -18 15 -53 -10 -44 -32 3 -9 1 -18 -6 -21 -7 -2 6
-5 28 -6 37 -1 39 -2 21 -15 -18 -14 -19 -15 -2 -15 12 0 16 -5 12 -15 -3 -9
0 -15 9 -15 8 0 15 -7 15 -15 0 -14 -18 -21 -65 -27 -25 -3 -129 28 -175 52
-33 17 -167 70 -177 70 -3 0 6 -15 20 -34 15 -18 23 -36 20 -40 -4 -3 0 -6 8
-6 8 0 19 -8 25 -18 10 -16 5 -15 -40 5 -101 46 -101 46 -106 88 -3 25 -11 41
-20 43 -12 2 -15 -11 -13 -80 1 -46 3 -83 4 -83 1 0 4 -79 13 -375 3 -113 9
-244 12 -292 l7 -88 -53 0 -53 0 6 -58 c3 -31 15 -156 26 -277 11 -121 23
-241 25 -267 5 -43 3 -47 -21 -53 -14 -3 -27 -5 -28 -3 -2 2 -10 80 -19 173
-85 892 -238 1640 -480 2355 -56 168 -107 314 -111 325 -8 18 -7 19 9 6 15
-12 17 -12 14 0 -2 8 -7 17 -13 21 -6 5 -6 8 1 8 18 0 37 -28 28 -41 -4 -7 -3
-9 4 -5 17 10 25 -13 10 -31 -9 -12 -9 -15 0 -9 11 7 17 -5 13 -27 -1 -5 3 -6
8 -3 11 7 5 48 -13 91 -7 16 -19 48 -26 70 -16 50 -145 352 -199 465 -38 80
-39 85 -20 88 17 3 20 9 15 30 -18 75 -66 164 -66 122 0 -23 -40 -8 -55 20
-18 35 -19 48 -2 47 6 0 25 1 41 1 47 3 13 30 -41 34 -43 3 -47 6 -72 50 -14
25 -23 49 -20 52 3 3 21 6 40 7 18 2 40 7 47 12 8 6 18 5 29 -4 12 -10 15 -11
9 -1 -6 10 -1 11 18 6 15 -3 26 -2 26 4 0 6 36 8 91 5 50 -2 96 1 103 6 6 5
44 11 84 13 39 2 72 5 72 8 0 3 62 6 138 7 75 1 155 5 177 8 157 22 184 26
191 24 27 -5 64 2 59 11 -4 7 3 7 19 0 24 -9 30 -6 27 13 0 4 3 7 9 7 5 0 10
-4 10 -8 0 -5 26 -5 58 -1 88 12 160 19 242 23 176 11 220 15 237 24 10 4 32
6 48 2 17 -3 37 -3 45 1 8 4 23 10 33 13 18 6 18 15 0 64 -3 6 2 12 10 12 9 0
18 -8 21 -18 4 -13 16 -18 40 -18 19 0 33 3 30 7 -2 4 3 10 12 13 25 9 27 7 9
-10 -11 -11 -13 -20 -6 -27 12 -12 42 8 38 26 -1 8 21 14 61 17 34 3 62 2 62
-1 0 -10 -88 -21 -102 -13 -6 4 -8 3 -4 -4 3 -6 2 -13 -4 -17 -18 -11 -11 -22
15 -22 14 0 25 4 25 8 0 5 11 7 25 3 19 -5 25 -2 25 10 0 20 14 20 34 0 9 -8
26 -14 38 -11 23 4 23 4 -2 15 l-25 11 23 0 c13 1 32 -4 43 -10 15 -7 24 -7
34 1 9 8 30 9 62 4 26 -4 55 -6 63 -6 159 11 204 23 166 44 -24 14 -19 27 17
44 31 14 31 15 5 11 -16 -2 -28 0 -28 4 0 5 3 9 8 9 6 0 102 10 237 26 28 3
62 7 77 10 26 4 47 -9 31 -19 -5 -3 -37 -8 -73 -12 -81 -8 -93 -17 -20 -15 30
1 71 1 90 0 l35 -2 -28 -12 c-15 -7 -24 -15 -20 -19 3 -4 -8 -2 -26 4 -26 9
-35 9 -41 -1 -5 -8 -10 -8 -14 -2 -3 6 -21 9 -39 8 -47 -4 -47 -5 -47 -22 0
-8 5 -12 10 -9 6 3 10 2 10 -3 0 -6 14 -7 34 -2 18 4 41 3 50 -2 9 -5 16 -5
16 -1 0 10 181 11 197 0 6 -4 13 -2 15 4 4 11 42 20 83 21 45 0 65 9 65 28 0
11 4 20 10 20 5 0 7 -7 4 -15 -6 -14 8 -20 46 -17 8 0 19 -6 23 -14 8 -14 10
-13 21 1 6 9 29 18 51 20 22 2 65 7 95 10 30 3 105 7 165 9 61 2 152 7 204 11
73 5 95 4 102 -7 7 -10 9 -9 9 5 0 9 6 17 13 18 6 0 32 2 57 3 25 2 72 6 105
11 66 8 102 12 220 20 44 3 98 7 120 9 40 4 215 18 270 21 17 1 51 3 78 4 l47
1 0 50 c0 47 -1 50 -26 50 -16 0 -24 5 -21 13 2 6 14 12 26 11 19 -1 21 4 21
65 l0 66 -77 -2 c-66 -2 -72 -1 -38 7 22 5 57 9 78 9 l37 1 0 285 0 285 -2952
-1 c-2564 0 -2950 -2 -2932 -15 11 -7 69 -49 128 -91 60 -43 133 -95 162 -115
l54 -37 24 24 c51 51 278 93 436 80 183 -14 266 -51 244 -108 -8 -21 -101 -67
-135 -67 -40 0 -42 -11 -14 -69 24 -49 41 -61 60 -42 10 10 67 23 97 22 10 0
20 4 23 10 4 5 13 5 24 -1 16 -8 18 -5 17 23 -1 18 -4 34 -8 37 -4 3 -9 29
-12 57 -2 28 -7 56 -10 62 -7 11 5 18 34 22 28 3 41 -1 35 -11 -3 -6 1 -7 9
-4 9 3 16 15 16 26 0 16 14 8 68 -39 37 -33 113 -99 170 -147 56 -49 101 -90
99 -93 -3 -2 -46 -8 -96 -14 -70 -8 -96 -7 -107 2 -11 9 -14 8 -14 -9 0 -12 8
-25 17 -31 26 -14 9 -25 -18 -11 -21 12 -21 11 -14 -16 4 -16 7 -46 6 -67 0
-24 5 -40 14 -43 7 -3 11 -12 8 -20 -3 -9 2 -14 18 -15 13 0 19 -3 13 -5 -10
-4 9 -80 29 -111 4 -7 5 -24 1 -38 -4 -18 -2 -25 8 -25 9 0 19 -20 27 -50 7
-27 18 -50 24 -50 7 0 96 7 198 17 189 17 219 15 219 -11 0 -9 -6 -13 -13 -10
-15 5 -384 -33 -398 -42 -5 -3 -7 -14 -4 -24 5 -15 -2 -19 -35 -25 -48 -8 -70
5 -70 42 0 37 -71 213 -86 213 -26 0 -44 -13 -44 -31 0 -10 5 -19 10 -19 22 0
8 -19 -22 -29 -17 -6 -29 -8 -25 -5 7 7 -56 64 -71 64 -5 0 -13 7 -16 16 -5
14 -4 15 8 5 12 -10 14 -9 11 6 -1 10 -8 17 -15 15 -8 -2 -11 4 -7 18 3 11 1
17 -4 14 -6 -3 -7 5 -3 20 5 21 3 26 -12 25 -11 0 -14 -3 -6 -6 6 -2 12 -9 12
-14 0 -4 -7 -6 -15 -3 -8 4 -15 13 -15 21 0 8 -9 22 -19 31 -10 10 -26 37 -36
62 -12 34 -27 52 -63 74 -106 67 -122 84 -122 131 0 24 4 46 10 50 5 3 6 13 3
21 -4 11 -13 14 -32 9 -30 -8 -129 -8 -246 0 -61 4 -74 2 -55 -6 13 -5 27 -13
30 -17 3 -4 25 -20 50 -36 25 -16 64 -44 88 -63 23 -19 49 -33 56 -30 11 4 15
-17 21 -95 4 -55 4 -102 1 -105 -3 -4 -6 5 -6 19 0 36 -11 88 -19 88 -4 0 -5
-16 -3 -35 2 -20 0 -35 -6 -35 -10 0 -122 122 -122 133 0 3 10 3 22 -1 14 -3
19 -2 14 6 -4 7 -17 12 -28 12 -14 0 -68 45 -152 128 -150 146 -242 223 -380
316 l-96 66 -327 0 c-179 0 -324 -2 -321 -5 3 -3 29 -12 59 -19 30 -8 68 -20
84 -27 17 -7 33 -13 38 -14 4 -2 10 -4 15 -5 4 -1 10 -2 15 -1 4 0 7 -4 7 -10
0 -6 -7 -9 -15 -6 -36 14 -190 47 -271 58 -125 16 -382 6 -507 -21 -53 -11
-147 -38 -207 -59 -61 -21 -110 -37 -110 -35 0 9 145 70 250 105 l115 38 -868
1 -867 0 15 -24 c15 -22 14 -24 -12 -42 -31 -20 -73 -28 -73 -13 0 5 -5 9 -10
9 -7 0 -7 -8 1 -22 8 -14 8 -23 2 -25 -6 -2 -62 -33 -124 -68 -62 -36 -116
-65 -120 -65 -10 0 -69 85 -69 98 0 6 6 13 13 15 9 4 9 6 -1 6 -8 1 -26 10
-40 22 -24 18 -27 19 -38 4 -10 -13 -3 -30 42 -95 l55 -79 -55 -40 c-30 -23
-60 -41 -66 -41 -6 0 -60 25 -121 56 l-111 55 6 72 c4 40 9 96 12 125 5 42 4
52 -9 52 -11 0 -17 -19 -23 -82 -4 -46 -8 -87 -9 -93 -1 -5 -3 -18 -3 -27 -3
-26 -33 -22 -99 11 -32 16 -116 57 -188 91 -71 34 -132 64 -134 66 -10 9 13
19 57 25 26 3 -106 6 -293 6 -187 1 -353 -3 -370 -7z m-36 -182 c33 -46 68
-92 77 -103 45 -57 184 -255 184 -263 0 -5 -10 -10 -22 -10 -35 -1 -230 -30
-235 -35 -2 -3 10 -8 27 -12 28 -6 98 -34 165 -65 28 -13 142 -50 155 -50 5 0
18 -8 28 -17 10 -10 27 -23 38 -30 20 -13 -83 26 -153 58 -23 10 -47 19 -53
19 -10 0 -135 50 -215 85 -16 7 -41 16 -55 20 -14 4 -59 22 -100 40 -41 19
-155 66 -252 104 -98 39 -185 75 -195 80 -10 5 -71 29 -135 52 -93 34 -118 47
-120 64 -2 12 -9 18 -18 16 -8 -2 -24 -6 -35 -9 -19 -5 -19 -5 -2 15 18 20 71
34 147 38 19 1 63 5 96 9 57 7 65 5 101 -18 33 -22 53 -27 108 -28 64 -1 70 1
94 29 14 16 31 37 36 47 8 12 38 20 125 30 63 8 123 14 132 15 11 1 40 -30 77
-81z m-1239 -139 c-41 -10 -85 -18 -98 -19 -13 0 -21 -4 -18 -9 3 -4 38 -2 78
5 90 16 111 17 103 4 -5 -8 19 -15 28 -7 2 1 14 -5 27 -14 14 -9 36 -18 50
-21 22 -5 179 -59 220 -75 8 -4 17 -7 20 -8 3 -1 18 -7 33 -13 16 -7 31 -12
34 -12 3 0 19 -7 36 -15 39 -18 207 -76 225 -77 6 -1 12 -6 12 -11 0 -6 3 -8
6 -4 3 3 18 1 33 -5 14 -5 33 -11 41 -13 19 -5 179 -62 205 -74 11 -5 58 -24
105 -41 160 -59 365 -143 381 -157 8 -7 20 -13 26 -13 6 0 17 -7 24 -17 13
-15 11 -16 -13 -10 -14 4 -34 10 -45 13 -16 5 -16 4 2 -11 11 -10 36 -24 55
-33 26 -11 30 -17 18 -20 -25 -5 -22 -39 3 -45 18 -5 20 -11 15 -48 -3 -23 -8
-44 -10 -46 -2 -2 -32 31 -67 74 -92 115 -97 119 -154 122 -27 1 -46 -1 -42
-5 4 -5 18 -8 31 -9 23 0 51 -31 123 -136 36 -52 56 -111 32 -93 -17 13 -59
10 -68 -4 -4 -7 -12 -8 -20 -2 -8 4 -20 6 -27 3 -8 -3 -28 0 -46 6 -18 7 -51
15 -73 18 -22 3 -41 9 -43 14 -2 5 -11 9 -19 9 -8 0 -46 33 -85 73 l-69 72 70
-93 71 -94 -22 -18 c-12 -10 -27 -16 -33 -15 -5 2 -50 9 -98 16 -55 8 -91 18
-94 26 -3 7 -11 13 -19 13 -51 0 -99 28 -152 90 -31 36 -58 67 -59 69 -2 2 -6
1 -9 -2 -4 -4 -2 -12 3 -19 6 -7 13 -22 17 -33 5 -19 1 -20 -57 -20 -44 0 -75
6 -108 23 -31 15 -63 22 -103 22 -35 0 -55 4 -51 10 3 5 16 10 28 10 77 0 214
14 222 22 7 7 -15 8 -65 4 -41 -3 -160 -8 -265 -10 -150 -4 -170 -3 -95 4 52
5 151 11 220 14 69 4 143 8 165 11 46 6 385 24 460 25 28 1 67 -3 89 -9 22 -5
47 -6 60 -1 17 7 12 9 -24 11 l-45 1 60 10 c33 5 101 8 151 6 82 -3 89 -2 65
10 -22 11 -422 162 -581 219 -25 9 -51 21 -58 26 -8 6 -63 4 -155 -6 -78 -9
-223 -24 -322 -33 l-179 -17 -59 64 c-33 35 -82 91 -110 123 l-52 59 65 -6 65
-6 -65 16 c-36 8 -66 19 -68 24 -2 5 -10 9 -17 9 -7 0 -26 15 -42 34 -17 18
-36 36 -44 39 -10 4 -8 6 6 7 11 1 23 2 27 1 4 0 20 4 35 10 15 6 45 12 66 13
21 2 40 6 44 10 3 3 20 6 37 5 21 -1 7 -7 -44 -20z m6882 -304 c66 -47 124
-85 129 -85 7 0 29 -54 29 -71 0 -25 -53 -1 -146 66 -57 41 -113 75 -123 75
-13 0 -20 10 -25 31 -9 46 -7 69 4 69 6 0 65 -38 132 -85z m804 30 c25 -21 41
-41 38 -49 -3 -8 5 -16 21 -20 44 -11 18 -24 -45 -23 -33 1 -60 -1 -60 -5 0
-4 -10 -8 -22 -10 -16 -2 -46 14 -93 50 -38 30 -71 57 -73 61 -1 4 12 8 30 9
18 2 56 6 83 11 28 5 56 9 64 10 8 0 33 -15 57 -34z m-5502 -80 c-9 -14 -26
-28 -38 -30 -51 -13 -442 -33 -451 -24 -21 21 21 30 210 45 43 3 90 9 215 28
14 2 37 4 53 5 27 1 27 1 11 -24z m5519 -80 c16 -20 34 -34 40 -33 23 5 77
-27 77 -44 0 -26 -46 -23 -84 5 -29 22 -37 23 -111 16 -63 -5 -86 -3 -110 9
l-30 15 28 9 c15 6 25 14 21 19 -7 12 4 11 65 -3 28 -6 51 -15 51 -20 0 -4 8
-8 18 -8 13 0 9 7 -16 28 -18 15 -29 31 -26 35 17 17 51 5 77 -28z m-2133 -24
c63 -16 155 -48 203 -70 49 -23 94 -41 99 -41 37 0 343 -199 400 -260 10 -10
26 -21 38 -25 11 -3 20 -12 20 -20 0 -7 10 -20 23 -28 34 -23 217 -204 217
-215 0 -6 7 -12 15 -16 8 -3 15 -10 15 -15 0 -5 16 -26 35 -47 19 -20 35 -42
35 -49 0 -7 6 -15 13 -18 38 -14 294 -415 407 -639 25 -47 49 -84 54 -81 5 3
6 1 3 -5 -10 -15 3 -43 16 -35 6 3 7 1 3 -5 -4 -7 -3 -19 2 -28 6 -11 11 -13
16 -5 8 12 -37 114 -147 331 -43 85 -74 151 -68 145 20 -20 194 -360 248 -484
12 -27 17 -31 25 -20 7 10 8 6 4 -13 -6 -28 8 -40 17 -15 3 6 6 2 6 -10 1 -13
6 -23 12 -23 8 0 8 -4 -1 -14 -9 -12 -7 -21 11 -45 12 -16 19 -37 16 -45 -4
-9 -2 -16 2 -16 5 0 12 -18 16 -40 4 -22 14 -44 23 -50 10 -5 12 -10 5 -10
-11 0 -7 -14 53 -180 7 -21 20 -36 31 -37 16 -3 16 -2 -2 5 -19 9 -19 9 0 21
16 10 16 11 3 7 -10 -3 -18 -1 -18 4 0 6 5 10 11 10 5 0 8 4 5 9 -3 5 1 11 9
14 9 4 12 1 8 -8 -3 -8 2 -18 12 -21 9 -4 14 -13 11 -20 -3 -8 -1 -14 3 -14 5
0 12 -7 15 -16 5 -12 2 -15 -9 -10 -9 3 -13 2 -10 -4 3 -6 12 -10 19 -10 8 0
16 -9 19 -21 4 -16 2 -19 -10 -15 -13 5 -14 4 -4 -8 8 -9 11 -30 8 -52 -4 -28
-1 -37 11 -41 21 -5 46 -53 29 -53 -8 0 -8 -3 1 -8 13 -9 49 -102 52 -137 4
-39 0 -56 -12 -49 -6 4 -8 3 -4 -4 3 -5 0 -13 -6 -16 -7 -3 1 -3 17 0 23 4 27
3 15 -5 -11 -8 -12 -11 -2 -11 7 0 11 -4 8 -9 -4 -5 -1 -11 5 -13 6 -2 13 -16
14 -32 2 -15 8 -40 14 -55 29 -73 135 -630 161 -846 6 -49 15 -117 20 -150 19
-117 38 -372 30 -384 -3 -4 -12 -8 -22 -8 -18 0 -32 57 -14 57 7 0 7 3 0 8 -7
4 -14 18 -17 32 -5 22 -5 22 -5 -5 0 -63 -2 -88 -8 -82 -4 3 -8 17 -9 29 -2
13 -8 59 -14 103 -5 44 -13 105 -17 135 -3 30 -7 58 -9 61 -2 3 -6 36 -9 75
-3 38 -12 103 -20 144 -8 41 -24 127 -36 190 -23 121 -96 465 -105 493 -3 10
-8 25 -12 35 -3 9 -7 22 -9 29 -9 44 -107 362 -161 523 -42 124 -123 338 -169
447 -24 57 -44 105 -44 108 0 10 -191 387 -238 470 -71 125 -223 350 -319 469
-216 272 -481 493 -739 618 -80 39 -108 48 -116 40 -17 -17 -28 -15 -22 2 9
23 -61 48 -142 49 -65 2 -70 4 -67 22 4 18 3 18 -9 4 -12 -14 -22 -14 -98 -3
-198 30 -411 10 -600 -57 -110 -40 -180 -57 -180 -46 0 19 15 37 31 37 41 0
99 25 99 42 0 10 4 18 10 18 6 0 9 -6 8 -12 -4 -17 1 -16 102 22 47 18 101 34
120 37 19 2 58 8 85 13 28 4 118 6 200 5 126 -3 168 -9 265 -34z m-580 -72 c0
-6 6 -9 14 -6 7 3 17 2 22 -3 5 -4 27 -13 49 -20 38 -12 54 -25 55 -42 0 -5
-26 -8 -57 -9 -43 0 -51 -3 -33 -8 14 -5 45 -18 70 -31 43 -22 44 -24 20 -30
-17 -4 -24 -12 -22 -24 2 -12 -1 -16 -10 -11 -7 4 1 -5 17 -19 17 -14 38 -35
49 -46 27 -28 52 -110 48 -157 l-4 -40 -91 -7 c-51 -3 -149 -11 -218 -17 -125
-12 -126 -12 -137 -41 -10 -28 -10 -29 21 -23 73 11 429 37 435 30 7 -7 6
-145 -2 -152 -2 -3 -147 -16 -322 -30 l-318 -26 -14 22 c-8 11 -19 21 -24 21
-5 0 -2 -8 8 -17 15 -16 15 -17 -2 -24 -11 -4 -28 -8 -38 -8 -20 -1 -110 -41
-104 -46 2 -2 44 1 93 5 50 5 158 14 240 19 203 15 273 21 384 32 52 5 95 8
97 7 1 -2 0 -15 -3 -30 -4 -20 -12 -28 -27 -30 -11 0 -28 -2 -36 -2 -8 -1 -25
4 -37 12 -14 9 -23 10 -23 4 0 -17 -88 -26 -106 -11 -13 11 -17 10 -26 -4 -5
-10 -13 -15 -19 -12 -5 4 -9 0 -9 -7 0 -10 -2 -10 -9 1 -5 8 -16 11 -29 7 -11
-4 -23 -2 -27 4 -8 14 -36 13 -32 -1 1 -7 -13 -16 -32 -21 -29 -8 -35 -6 -48
12 -12 17 -21 20 -42 15 -14 -4 -30 -13 -34 -21 -8 -13 -11 -13 -31 -1 -17 12
-43 14 -109 10 -48 -3 -87 -8 -87 -10 0 -3 19 -36 43 -75 38 -62 45 -69 70
-65 21 3 27 -1 27 -15 0 -16 6 -18 48 -13 26 3 137 12 247 20 110 8 229 18
264 21 l63 6 -5 -109 c-4 -59 -6 -144 -6 -189 l0 -80 -38 -1 c-121 -3 -125 -4
-112 -19 10 -12 6 -14 -25 -14 -20 0 -36 5 -36 11 0 12 -184 8 -196 -4 -6 -6
33 -77 42 -77 3 0 14 5 25 10 16 9 19 7 19 -10 0 -23 8 -23 236 -4 l71 6 7
-253 c3 -140 3 -302 -2 -362 -4 -59 -6 -160 -5 -225 5 -233 -2 -571 -11 -637
-4 -22 -8 -182 -10 -355 -2 -307 -9 -405 -27 -394 -5 3 -9 61 -9 129 l0 123
-110 -4 -109 -5 -77 73 c-42 40 -90 91 -106 113 -16 22 -58 70 -94 107 -35 37
-64 69 -64 71 0 3 98 8 218 11 119 4 247 9 285 12 l67 6 0 35 0 34 -67 -5
c-38 -3 -183 -8 -323 -11 l-255 -6 -115 121 c-63 67 -118 127 -122 134 -6 10
56 15 280 25 273 11 604 30 609 35 2 1 5 16 9 32 5 25 1 31 -24 42 -21 9 -37
10 -55 3 -14 -6 -49 -7 -77 -4 -36 4 -50 2 -50 -7 0 -9 -10 -10 -36 -5 -22 4
-48 1 -66 -6 -21 -8 -35 -9 -51 -1 -44 21 -56 22 -50 5 5 -13 1 -15 -28 -9
-19 3 -44 8 -56 10 -12 2 -28 8 -35 12 -9 5 -9 2 1 -10 14 -17 12 -17 -33 -11
-36 6 -50 4 -57 -6 -8 -12 -11 -12 -19 1 -8 13 -10 13 -10 1 0 -11 -3 -12 -11
-4 -7 7 -22 8 -43 2 -18 -5 -44 -9 -57 -9 -37 1 -147 -8 -177 -14 -20 -4 -36
1 -62 23 -19 16 -33 31 -30 34 3 2 169 10 370 17 446 15 687 26 600 29 -36 0
-217 -4 -403 -10 -321 -11 -338 -11 -351 6 -12 17 -13 17 -18 -3 -5 -19 -14
-21 -108 -24 l-102 -3 -54 57 -55 58 2 97 2 98 -59 4 c-52 3 -43 6 71 17 139
14 598 46 938 65 149 9 207 16 207 24 0 7 3 27 6 44 l7 31 -134 -5 c-74 -2
-154 -7 -179 -10 -67 -8 -705 -45 -782 -45 -63 0 -68 2 -68 21 0 19 -4 21 -37
15 -21 -3 -71 -6 -112 -6 -66 0 -72 -2 -65 -17 4 -10 8 -28 8 -40 1 -11 4 -19
7 -17 4 2 14 -7 23 -21 24 -37 96 -175 91 -175 -2 0 -36 37 -76 83 -68 78
-167 184 -318 342 -69 72 -117 136 -146 199 -31 66 -49 32 -20 -37 14 -35 14
-37 -11 -62 -20 -20 -53 -79 -59 -105 0 -3 -4 -22 -9 -44 -4 -21 -11 -46 -16
-55 -5 -9 -11 -24 -14 -35 -4 -10 -12 -16 -19 -13 -21 8 -43 -16 -51 -55 -4
-22 -13 -38 -20 -38 -14 0 -66 -147 -126 -353 l-31 -108 55 -57 c77 -80 95
-102 144 -170 24 -33 50 -66 58 -73 19 -16 18 -29 -3 -30 -10 -1 -4 -4 12 -8
17 -4 29 -12 27 -19 -1 -7 4 -12 11 -12 14 0 70 -58 142 -144 22 -26 54 -55
71 -64 70 -37 168 -145 178 -198 6 -28 4 -31 -31 -42 -43 -13 -50 -10 -28 12
22 22 9 20 -23 -3 -15 -10 -49 -21 -76 -24 -41 -4 -55 -11 -78 -38 -27 -33
-58 -107 -58 -139 0 -8 81 -96 179 -194 l179 -178 74 21 c41 11 132 25 203 31
112 10 130 9 144 -4 14 -15 6 -16 -79 -17 -52 0 -104 -3 -115 -5 -11 -2 -38
-7 -60 -10 -22 -4 -45 -11 -52 -16 -6 -5 -30 -9 -53 -10 -39 0 -40 -1 -24 -19
14 -15 20 -17 33 -7 13 10 14 10 4 -1 -10 -11 4 -31 70 -101 45 -48 90 -102
100 -119 l18 -31 -111 0 c-115 0 -140 8 -140 45 0 9 -4 13 -10 10 -6 -4 -7 1
-3 12 3 10 3 15 -2 11 -13 -12 -45 35 -33 49 5 7 7 16 4 22 -7 11 14 61 26 61
4 0 8 -5 8 -12 0 -6 3 -8 7 -5 3 4 -2 16 -13 28 -10 11 -26 36 -35 56 -12 26
-18 31 -22 19 -4 -9 1 -19 10 -24 10 -6 14 -16 9 -27 -3 -10 -1 -24 5 -32 10
-11 9 -18 -4 -30 -15 -15 -15 -14 -10 7 5 18 3 21 -8 15 -8 -5 -11 -5 -7 0 4
4 -3 16 -15 26 -19 15 -20 20 -8 31 8 7 11 8 8 2 -4 -7 0 -17 7 -23 21 -18 31
5 11 25 -9 9 -14 22 -11 29 2 7 -4 21 -14 30 -11 10 -17 22 -14 27 3 4 0 7 -8
6 -7 -2 -12 2 -11 7 2 16 -62 56 -79 50 -9 -4 -15 -17 -14 -30 0 -13 4 -21 9
-18 4 2 7 -4 8 -14 0 -16 1 -16 9 2 12 28 11 56 -1 30 -7 -17 -8 -17 -6 -2 4
32 22 17 21 -18 -1 -21 3 -32 9 -28 6 3 7 1 3 -6 -5 -7 -16 -9 -29 -5 -19 6
-20 5 -8 -9 7 -9 18 -14 23 -11 6 4 6 -2 -1 -13 -6 -11 -7 -24 -3 -28 4 -5 1
-5 -5 -1 -7 4 -13 2 -13 -3 0 -6 6 -11 13 -11 8 0 14 -6 14 -14 0 -8 -4 -14
-8 -13 -4 1 -7 -2 -7 -8 0 -5 5 -9 10 -7 6 2 8 -4 5 -13 -8 -20 3 -19 19 2 8
12 9 22 2 30 -6 8 -6 19 2 32 6 11 7 33 4 48 -6 23 -5 25 8 13 8 -8 13 -25 11
-39 -3 -26 -3 -26 7 -3 5 13 15 20 20 17 8 -5 6 -14 -4 -29 -13 -21 -13 -25 1
-39 8 -8 12 -20 8 -27 -5 -8 -11 -5 -19 11 -6 12 -18 24 -26 26 -10 3 -8 -1 4
-11 13 -10 15 -16 6 -16 -8 0 -4 -8 10 -20 13 -11 20 -20 16 -20 -4 0 -1 -7 8
-15 12 -13 13 -21 4 -40 -6 -13 -14 -22 -18 -20 -4 2 -7 -10 -8 -27 -1 -25 2
-29 9 -18 7 11 9 11 7 2 -2 -8 -7 -13 -11 -13 -4 1 -14 1 -22 1 -8 0 -15 9
-15 19 0 11 -4 23 -10 26 -6 3 -10 -4 -10 -17 0 -35 -11 -68 -22 -68 -6 0 -8
7 -5 15 4 8 1 17 -5 21 -7 5 -8 2 -3 -6 5 -9 4 -11 -4 -6 -6 4 -9 12 -5 17 3
5 10 7 15 4 5 -4 9 -1 9 4 0 6 -5 11 -11 11 -6 0 -9 6 -6 14 3 8 0 22 -8 32
-9 13 -10 26 -4 42 12 31 12 32 -6 26 -10 -4 -15 0 -16 12 0 11 -3 14 -6 6 -2
-6 -9 -9 -15 -6 -6 4 -5 -3 2 -15 6 -12 15 -19 21 -16 5 4 9 1 9 -4 0 -6 -3
-11 -7 -11 -19 1 -36 20 -44 51 l-8 34 4 -35 c3 -19 8 -53 11 -75 3 -22 5 -55
5 -73 0 -22 4 -30 12 -26 9 5 9 4 1 -5 -16 -17 -50 -9 -46 11 1 8 -5 21 -13
28 -8 7 -15 19 -15 27 0 8 -4 12 -8 9 -4 -2 -8 22 -7 55 1 33 -3 63 -8 66 -4
3 0 14 10 26 10 11 13 17 6 14 -6 -4 -14 -3 -18 3 -3 5 -1 10 6 10 8 0 7 5 -2
17 -11 13 -11 15 -1 9 10 -6 12 3 6 46 -7 58 -24 90 -20 39 1 -17 -1 -31 -5
-31 -7 0 -19 60 -19 99 0 20 2 21 15 11 8 -7 4 8 -10 35 -14 25 -20 43 -15 40
6 -4 17 -1 25 5 13 10 14 7 11 -19 -2 -19 2 -35 12 -43 13 -11 14 -11 7 2 -11
18 -13 43 -3 51 19 14 -34 125 -54 113 -7 -4 -8 -3 -4 4 4 6 -2 17 -14 24 -11
7 -20 18 -20 25 0 7 -4 12 -9 10 -5 -1 -9 1 -10 6 -1 12 -25 35 -33 31 -4 -2
-9 5 -13 16 -4 12 -15 20 -28 20 -20 0 -97 72 -97 91 0 5 -7 9 -16 9 -8 0 -13
4 -10 8 2 4 1 14 -5 22 -7 12 -9 12 -9 -3 0 -12 -4 -16 -12 -11 -10 6 -10 4
-2 -7 16 -20 28 -72 14 -64 -5 3 -10 2 -10 -3 0 -6 -7 -13 -16 -16 -12 -4 -15
-2 -10 9 3 8 1 15 -4 15 -6 0 -8 20 -6 47 3 26 1 50 -4 53 -5 3 -11 17 -14 32
-5 29 -35 68 -52 68 -6 0 -17 12 -25 26 -12 24 -12 28 9 44 12 10 22 29 22 42
0 47 3 59 17 54 8 -3 11 -1 8 4 -3 6 -31 10 -61 10 l-54 0 -1 -32 c-1 -18 -2
-45 -3 -60 0 -14 -4 -24 -7 -22 -4 2 -9 -13 -12 -34 -3 -20 -17 -91 -31 -157
-14 -66 -27 -140 -30 -165 -2 -25 -7 -56 -10 -70 -5 -25 -14 -89 -20 -147 -3
-20 2 -37 11 -44 9 -8 10 -14 3 -19 -8 -5 -8 -15 0 -34 8 -21 6 -32 -6 -51 -9
-14 -23 -25 -31 -25 -13 0 -13 -3 -3 -15 9 -10 9 -15 1 -15 -6 0 -11 -10 -12
-22 -1 -22 -1 -22 -8 2 -4 14 -4 41 1 60 4 19 8 59 8 89 0 100 102 720 140
851 13 47 13 60 -3 60 -8 0 -13 9 -11 23 1 12 3 25 3 30 1 4 6 7 12 7 6 0 9
-9 6 -20 -3 -11 -2 -18 3 -15 4 3 20 55 34 117 47 195 46 190 30 177 -8 -6
-14 -19 -14 -29 0 -9 -3 -20 -6 -23 -4 -3 -8 -21 -9 -39 -3 -41 -21 -88 -34
-88 -5 0 -3 20 4 44 12 39 12 45 -2 50 -27 11 -33 6 -27 -18 3 -13 0 -29 -8
-37 -7 -8 -15 -34 -16 -59 -4 -53 -4 -52 -26 -44 -9 4 -15 13 -12 20 8 20 -15
29 -26 11 -5 -10 -15 -14 -26 -10 -15 6 -15 5 -2 -8 9 -8 25 -19 35 -25 23
-13 33 -78 15 -99 -6 -8 -11 -24 -9 -37 1 -13 -1 -30 -4 -38 -13 -34 -26 -87
-31 -125 -3 -22 -9 -62 -15 -90 -7 -36 -6 -52 2 -57 9 -6 9 -8 0 -8 -15 0 -38
-103 -23 -108 6 -2 4 -10 -5 -19 -9 -8 -15 -29 -15 -46 1 -18 -3 -50 -9 -72
-6 -22 -11 -57 -11 -77 0 -27 -4 -38 -15 -38 -13 0 -15 9 -11 47 3 27 6 50 7
53 1 3 1 8 0 12 -1 8 25 155 34 191 6 21 4 27 -9 27 -9 0 -16 5 -16 10 0 6 7
10 15 10 8 0 17 10 19 23 25 125 31 177 22 177 -6 0 -3 7 7 14 11 9 17 27 17
53 0 21 4 43 9 49 6 5 12 30 15 55 3 26 9 55 13 64 5 15 2 17 -20 11 -18 -4
-27 -2 -27 5 0 8 -4 9 -13 0 -20 -16 -28 -2 -14 23 6 11 12 31 12 44 l1 23
-16 -22 c-12 -15 -23 -19 -38 -14 -12 3 -22 12 -22 18 0 7 -5 4 -11 -6 -6 -10
-8 -30 -4 -44 5 -23 4 -25 -20 -19 -24 6 -25 5 -15 -14 9 -18 8 -20 -14 -20
-14 0 -28 -5 -32 -11 -4 -7 2 -9 17 -7 22 3 24 0 21 -31 -1 -19 -7 -39 -12
-46 -5 -6 -5 -17 0 -25 11 -18 4 -30 -21 -30 -21 0 -26 26 -6 33 6 2 9 8 5 12
-4 4 -20 0 -37 -8 -30 -15 -54 -6 -29 10 7 4 18 18 25 29 10 19 9 23 -9 27
-26 7 -38 1 -38 -19 0 -9 5 -12 13 -8 6 4 8 3 4 -1 -12 -14 -41 -15 -49 -2 -6
9 -8 8 -9 -3 -3 -55 -22 -120 -36 -120 -5 0 -14 4 -22 9 -12 7 -12 13 -3 24
24 28 -1 25 -38 -4 -41 -33 -43 -39 -70 -229 -6 -41 -13 -88 -16 -103 -5 -26
-4 -27 22 -21 19 5 25 4 20 -5 -4 -6 -16 -11 -26 -11 -15 0 -22 -14 -33 -66
-9 -36 -13 -72 -10 -80 3 -8 -1 -14 -11 -14 -13 0 -15 8 -9 46 4 34 2 49 -8
56 -11 7 -11 11 -1 15 6 2 9 9 6 14 -3 6 0 17 7 25 10 13 10 17 -2 25 -12 8
-12 10 1 19 11 7 11 10 2 10 -9 0 -11 10 -6 36 5 27 4 35 -5 30 -18 -11 -13 5
7 20 16 13 16 13 -1 14 -10 0 -20 -7 -23 -15 -4 -8 -12 -15 -20 -15 -8 0 -14
-4 -14 -10 0 -5 7 -10 15 -10 24 0 17 -20 -11 -30 -22 -9 -24 -13 -14 -25 10
-12 9 -15 -7 -15 -10 0 -24 -5 -31 -12 -9 -9 -12 -9 -12 0 0 7 5 12 10 12 6 0
10 7 10 15 0 16 -16 20 -24 6 -3 -5 -20 -14 -38 -20 -25 -9 -30 -9 -21 0 8 8
9 17 4 23 -13 15 -1 66 15 66 7 0 16 5 20 12 5 7 2 9 -9 5 -20 -7 -29 16 -18
46 4 12 11 52 15 90 4 37 12 80 18 95 6 15 10 40 9 55 -1 16 5 43 14 59 8 17
12 34 9 39 -8 14 20 131 33 136 7 3 20 -2 28 -11 13 -12 21 -13 36 -6 25 14
25 23 -1 15 -11 -3 -20 -2 -20 3 0 5 -9 12 -20 15 -21 5 -27 36 -10 53 6 6 13
37 15 70 6 79 14 112 36 156 11 21 19 53 19 71 0 34 23 121 42 163 5 11 11 39
12 61 4 48 12 64 29 57 9 -3 12 13 12 56 1 33 6 65 13 72 9 9 12 9 12 0 0 -7
7 -12 17 -12 15 0 15 1 0 18 -21 23 -22 33 -1 25 14 -5 14 -3 3 15 -12 19 -11
29 4 71 9 27 17 58 17 69 0 11 7 22 15 26 8 3 15 15 15 26 0 12 4 29 9 39 5 9
11 30 14 46 4 31 9 47 32 100 7 17 15 39 17 50 2 11 12 21 23 21 11 1 24 2 29
3 4 1 -2 10 -15 22 l-24 21 22 -5 c20 -4 21 -3 12 15 -8 15 -8 22 0 28 7 4 9
15 5 25 -5 13 -4 16 5 10 10 -5 12 -2 7 11 -8 27 8 48 30 40 17 -5 17 -4 -1 9
-17 14 -18 17 -5 25 8 5 24 9 35 9 11 0 14 -3 8 -6 -7 -2 -13 -10 -13 -17 0
-13 92 -96 107 -96 4 0 1 5 -7 10 -8 5 -10 10 -4 10 18 0 24 -13 13 -27 -6 -7
-20 -13 -30 -13 -25 0 -24 -8 3 -31 11 -11 17 -19 12 -19 -6 0 -15 5 -20 10
-7 7 -19 7 -35 1 -13 -5 -18 -10 -11 -10 22 -2 13 -21 -10 -21 -23 0 -23 0 2
-20 l25 -19 -52 3 c-29 1 -53 1 -53 -1 0 -10 92 -41 107 -36 13 5 15 2 10 -11
-4 -10 -7 -21 -7 -26 0 -18 -33 -19 -55 -2 -19 15 -21 22 -12 31 9 10 8 11 -5
6 -9 -4 -29 2 -45 11 -24 16 -23 14 9 -21 22 -22 33 -42 27 -45 -5 -4 4 -7 21
-7 38 0 48 -10 26 -26 -15 -11 -15 -14 -2 -32 15 -20 15 -20 21 0 4 11 15 36
26 56 10 20 19 42 19 48 0 6 8 29 17 51 19 43 36 48 41 12 3 -16 -1 -20 -12
-16 -19 7 -21 -7 -3 -25 10 -10 9 -11 -5 -6 -20 8 -25 -10 -5 -18 7 -3 4 -6
-7 -6 -14 -1 -17 -7 -13 -27 3 -16 0 -28 -9 -31 -8 -3 -12 -8 -9 -13 2 -4 -2
-16 -10 -26 -19 -25 -19 -58 0 -74 8 -6 31 -12 52 -13 21 0 45 -7 53 -15 11
-12 15 -12 19 -1 2 7 -1 15 -7 17 -7 2 -12 13 -12 25 0 20 0 20 -14 1 -14 -18
-15 -18 -21 -1 -4 9 -18 17 -31 17 -13 0 -24 5 -24 11 0 6 7 9 15 5 9 -3 15 0
15 10 0 11 6 13 20 9 11 -4 20 -2 20 4 0 10 -12 15 -31 13 -8 -1 -4 36 5 45 4
4 9 -2 12 -14 3 -12 12 -24 20 -27 12 -4 12 -2 4 14 -6 11 -7 20 -3 20 4 1 -2
9 -15 20 -15 13 -19 21 -11 26 16 9 41 -26 34 -46 -5 -11 -3 -12 6 -3 6 6 19
9 28 6 12 -4 13 -3 3 5 -8 5 -19 20 -26 33 -7 13 -18 23 -24 21 -7 -1 -12 2
-12 8 0 14 43 13 58 -2 9 -9 12 -5 12 21 0 22 4 31 13 28 6 -2 11 -12 11 -21
-1 -9 3 -16 10 -16 6 -1 5 -6 -4 -13 -22 -18 -21 -67 2 -67 10 0 18 -4 18 -9
0 -4 -11 -6 -24 -4 -13 3 -27 0 -30 -6 -4 -6 0 -11 9 -11 11 0 15 -5 12 -14
-4 -9 2 -17 14 -21 10 -4 17 -11 14 -16 -3 -5 -17 -2 -30 7 -14 9 -22 20 -19
25 3 5 -2 6 -10 3 -20 -8 -20 -18 -2 -33 18 -15 76 -23 76 -10 0 5 6 9 14 9
17 0 29 -27 15 -36 -5 -3 -7 -14 -4 -25 8 -23 5 -23 -31 -4 -16 8 -35 15 -42
15 -21 0 -8 -25 14 -26 10 -1 21 -2 24 -4 10 -6 80 -7 81 -1 1 3 2 27 3 53 1
34 -2 48 -13 50 -12 3 -12 6 2 20 29 29 17 49 -36 62 -21 5 -28 3 -25 -6 3 -7
13 -13 24 -13 32 0 23 -54 -10 -55 -4 0 -6 7 -2 15 3 8 2 15 -2 15 -12 0 -30
49 -25 69 5 21 33 18 33 -4 0 -14 53 -25 82 -17 10 2 15 9 11 16 -13 19 -15
58 -3 51 16 -10 12 6 -7 27 -9 10 -11 18 -5 18 19 0 32 -36 28 -81 -2 -24 -9
-45 -15 -47 -6 -2 -8 -9 -4 -15 4 -7 6 -26 4 -44 -1 -17 3 -41 9 -52 12 -24 7
-27 -13 -7 -25 26 -8 -93 20 -135 13 -21 28 -59 33 -86 6 -39 8 -42 9 -15 0
17 6 32 13 32 7 0 5 7 -5 18 -9 9 -18 39 -20 66 -3 27 -11 52 -18 57 -10 6
-11 9 -1 9 6 0 12 7 12 15 0 17 16 20 25 5 3 -5 1 -10 -6 -10 -24 0 1 -13 31
-17 34 -3 53 22 29 39 -11 7 -9 8 5 4 11 -4 23 -1 28 6 7 10 11 9 22 -5 11
-14 11 -26 3 -53 -7 -23 -13 -30 -18 -22 -4 7 -10 10 -12 8 -7 -9 -60 -175
-62 -192 -1 -9 -6 -22 -12 -30 -17 -21 -3 -66 27 -88 24 -17 29 -18 34 -5 3 8
0 14 -7 12 -7 -1 -12 8 -11 20 0 12 -4 21 -10 20 -6 -1 -12 8 -14 21 -2 14 2
22 11 22 9 0 22 2 30 5 10 5 13 -2 10 -27 -3 -32 -3 -32 17 11 12 25 18 51 16
58 -3 7 -1 13 4 13 6 0 10 5 10 10 0 6 -3 9 -7 9 -20 -3 -21 4 -7 51 8 28 13
54 11 58 -3 4 1 12 8 19 10 10 14 9 19 -3 10 -25 7 -44 -6 -44 -7 0 -13 -11
-13 -24 0 -13 5 -22 10 -19 10 3 55 111 55 130 0 8 97 231 165 378 15 33 35
76 43 95 9 19 27 53 41 75 13 22 24 46 24 52 0 7 4 13 9 13 4 0 24 33 44 73
20 39 57 103 82 140 38 57 43 70 31 79 -11 8 -11 9 4 4 11 -3 17 0 17 9 0 8 5
15 10 15 6 0 10 4 10 10 0 10 49 77 106 145 18 22 60 72 92 110 81 97 273 286
357 354 39 31 72 59 75 62 3 3 22 17 42 31 21 13 35 28 31 32 -4 4 0 4 10 0
10 -3 17 -1 17 5 0 6 6 11 13 11 7 0 31 13 53 29 46 33 84 48 84 31 0 -12 -59
-70 -71 -70 -4 0 -10 -13 -14 -29 -3 -16 -15 -37 -26 -47 -11 -10 -26 -41 -35
-70 -12 -43 -18 -51 -34 -47 -15 4 -20 0 -20 -15 0 -12 -9 -27 -20 -35 -13 -9
-21 -27 -23 -48 -2 -41 -16 -54 -34 -31 -11 15 -12 14 -13 -8 0 -34 13 -52 33
-44 13 5 16 2 11 -10 -3 -9 -1 -16 5 -16 6 0 11 8 11 18 0 10 3 13 8 6 4 -6
17 -14 29 -18 31 -10 38 -34 7 -28 -14 2 -24 0 -24 -7 0 -6 -9 -3 -20 6 -20
17 -63 26 -54 11 3 -4 -1 -8 -9 -8 -10 0 -21 23 -32 64 -16 60 -16 68 -2 105
11 26 14 48 9 62 -8 20 -17 14 -117 -82 -122 -117 -268 -283 -338 -386 -26
-37 -63 -90 -83 -118 -64 -91 -64 -88 3 -84 l58 4 0 -102 c0 -57 2 -103 5
-104 3 -1 51 1 108 5 l102 8 2 106 c1 59 2 137 2 174 1 38 2 68 3 68 2 0 17
-9 34 -19 29 -18 35 -18 60 -6 23 13 29 13 39 0 9 -11 9 -15 1 -15 -6 0 -11
-17 -11 -39 l0 -39 48 6 c26 2 48 5 49 6 7 6 -70 106 -77 101 -6 -4 -10 -2
-10 3 0 10 163 92 184 92 7 0 19 7 26 15 9 10 9 15 1 15 -6 0 -11 -4 -11 -10
0 -5 -6 -10 -14 -10 -15 0 -20 17 -32 94 -5 39 -4 48 7 44 8 -2 15 -19 17 -36
2 -20 8 -29 16 -26 7 3 10 18 8 39 -5 39 11 47 28 15 6 -11 15 -20 21 -20 6 0
8 4 5 9 -8 12 4 41 16 41 5 0 7 -9 3 -19 -3 -11 -2 -22 3 -25 17 -11 32 20 26
55 -16 93 -16 99 -4 99 6 0 19 -8 28 -17 13 -12 14 -17 4 -21 -10 -3 -9 -8 4
-23 15 -17 15 -19 0 -25 -22 -8 -20 -27 5 -50 17 -16 22 -16 29 -4 6 8 10 18
10 23 0 4 9 7 19 7 11 0 23 9 26 21 6 17 9 19 16 8 6 -9 9 -10 9 -2 0 6 -4 15
-10 18 -5 3 -10 31 -10 61 0 30 -5 54 -10 54 -6 0 -8 10 -4 24 4 18 1 27 -15
36 -12 6 -21 18 -21 26 0 9 -7 23 -16 31 -12 12 -14 27 -9 61 14 95 19 106 42
97 10 -3 22 3 30 15 8 11 23 20 34 20 11 0 22 7 25 14 3 8 54 31 112 51 59 20
118 42 132 50 30 17 90 20 90 4z m2202 -109 c2 -5 13 -11 25 -13 28 -4 42 -17
19 -17 -26 0 -13 -25 13 -26 25 -1 41 -19 41 -46 0 -10 10 -20 23 -23 25 -6
167 1 175 10 3 3 -2 5 -11 5 -9 0 -17 4 -17 9 0 5 -2 16 -5 23 -5 11 22 17
132 26 76 7 164 15 196 18 52 5 57 4 57 -14 0 -22 9 -20 -224 -43 -85 -9 -113
-15 -97 -21 13 -4 27 -5 32 -2 5 3 16 -2 25 -10 9 -9 20 -14 25 -11 5 3 17 1
28 -4 15 -9 20 -7 24 10 4 14 1 19 -7 16 -7 -3 -19 -1 -27 4 -10 6 -3 9 23 9
28 0 36 -3 32 -14 -4 -10 0 -13 13 -11 10 2 21 4 26 4 4 1 7 6 7 12 0 8 -6 7
-17 -2 -16 -13 -17 -12 -4 4 16 20 77 25 65 5 -5 -9 -3 -9 9 1 9 7 26 11 37 8
11 -3 18 -1 14 4 -3 5 0 9 5 9 6 0 11 -6 11 -12 1 -8 6 -6 14 4 12 17 14 17
31 -2 16 -18 16 -20 2 -20 -10 0 -17 -4 -17 -9 0 -5 15 -6 34 -1 19 4 46 5 60
3 14 -3 34 -2 43 2 30 13 53 12 53 -2 0 -12 -20 -18 -44 -14 -5 1 -4 -4 2 -12
9 -11 8 -14 -3 -14 -8 0 -15 6 -15 14 0 7 -4 13 -10 13 -5 0 -9 -3 -9 -7 3
-21 -3 -29 -25 -28 -37 0 -44 15 -7 15 18 0 30 4 26 9 -3 6 -15 7 -28 5 -12
-3 -27 -6 -34 -6 -6 -1 -9 -8 -6 -17 4 -13 2 -13 -10 2 -16 20 -32 23 -21 5 5
-10 4 -10 -6 -1 -8 7 -32 9 -66 6 -50 -5 -54 -4 -54 16 0 11 -4 21 -9 21 -5 0
-7 -9 -4 -20 4 -17 0 -20 -23 -20 -45 0 -78 -11 -63 -21 22 -13 -7 -36 -43
-33 -18 1 -41 3 -51 3 -10 1 -15 6 -12 11 3 6 1 10 -4 10 -6 0 -11 -6 -11 -14
0 -20 -32 -29 -110 -32 -117 -5 -225 -11 -225 -14 0 -1 -27 -3 -61 -5 -61 -2
-61 -2 -80 33 -10 20 -30 49 -43 64 -13 16 -21 31 -18 34 2 3 37 8 76 13 72 7
72 7 77 -18 5 -24 9 -26 54 -23 41 3 47 6 43 23 -3 11 -10 19 -17 18 -37 -4
-66 2 -66 16 0 8 7 15 15 15 12 0 11 5 -5 23 -10 12 -19 26 -19 31 0 5 -5 13
-13 17 -9 6 -3 9 19 9 17 0 33 -4 35 -10z m-1370 -97 c18 -16 19 -16 13 3 -4
10 5 1 19 -21 13 -22 33 -49 44 -60 23 -25 27 -71 7 -79 -8 -3 -15 -12 -15
-20 0 -7 -11 -21 -24 -29 -23 -15 -25 -15 -47 14 -35 46 -58 55 -76 30 l-14
-21 -33 25 c-44 33 -54 32 -72 -10 -13 -33 -40 -52 -28 -20 4 10 0 13 -14 10
-17 -3 -19 1 -17 32 4 43 13 53 48 56 32 3 80 43 71 60 -5 9 -4 9 6 0 11 -10
10 -17 -3 -37 -16 -23 -16 -25 3 -31 14 -5 26 1 40 17 l20 23 -3 -24 c-1 -13
3 -26 10 -28 13 -5 47 58 35 66 -5 3 -12 18 -16 34 -5 21 -3 27 11 27 9 0 25
-8 35 -17z m-6111 -203 c13 -8 19 -7 19 0 0 7 6 10 13 7 6 -2 11 -9 10 -14 -1
-5 8 -9 20 -9 13 1 21 -4 19 -12 -2 -10 2 -10 16 -3 17 9 19 7 16 -14 -1 -14
2 -23 6 -20 5 3 11 -4 15 -15 4 -11 10 -18 15 -15 14 9 38 -5 43 -25 3 -11 16
-24 29 -29 76 -29 76 -28 -2 -29 -60 -1 -99 6 -193 35 l-118 37 52 24 c43 21
49 27 37 36 -16 12 -34 56 -23 56 3 0 15 -5 26 -10z m497 -60 c6 0 12 -9 12
-19 0 -11 5 -23 10 -26 6 -3 10 1 10 10 0 12 5 15 18 10 9 -4 25 -10 35 -12 9
-3 17 -12 17 -19 0 -8 3 -13 8 -13 27 4 47 -23 43 -58 -1 -7 6 -13 16 -13 13
0 14 -3 5 -12 -9 -9 -9 -15 1 -27 9 -12 9 -13 0 -7 -7 4 -13 3 -13 -3 0 -5 -3
-16 -6 -24 -3 -10 3 -17 19 -21 14 -3 32 -9 41 -12 12 -5 15 4 18 48 l3 53 43
-3 c24 -2 55 3 73 12 24 12 30 13 26 2 -3 -7 0 -19 6 -26 9 -10 8 -12 -5 -7
-10 3 -20 2 -23 -3 -10 -16 32 -11 49 5 18 19 119 19 161 1 29 -13 26 -14 -60
-21 -49 -4 -109 -8 -131 -9 -39 -1 -41 -2 -28 -21 19 -27 18 -33 -8 -33 -13
-1 -41 -3 -63 -7 -102 -15 -181 -16 -210 -4 l-30 13 28 4 c15 2 27 7 27 12 0
13 -29 20 -83 19 -51 -1 -51 -1 -18 -10 18 -6 31 -13 28 -15 -5 -5 -103 23
-162 46 -13 5 7 10 63 15 46 4 81 10 80 14 -39 76 -56 121 -56 150 -1 19 3 22
21 17 12 -3 28 -6 35 -6z m8079 -150 c40 -13 69 -28 66 -33 -4 -6 0 -8 10 -4
9 3 80 -16 159 -43 79 -27 132 -49 119 -49 -24 -1 -24 -1 -5 -23 12 -15 13
-18 3 -10 -17 13 -53 6 -44 -8 6 -10 -32 -22 -65 -21 -24 0 -24 0 5 -14 58
-28 7 -14 -153 40 -228 77 -233 79 -228 107 2 13 10 22 17 20 10 -3 10 0 -1
12 -11 14 -9 16 14 16 14 0 26 -4 26 -10 0 -6 9 -6 25 0 16 6 27 6 31 -2 4 -6
3 -8 -4 -4 -6 3 -13 2 -17 -4 -3 -5 1 -10 9 -10 8 0 18 5 21 10 11 17 27 11
21 -8 -4 -13 -1 -18 14 -18 11 0 20 5 20 11 0 14 -39 37 -50 30 -6 -4 -10 -1
-10 4 0 6 -6 11 -12 11 -7 1 -26 8 -43 16 -35 17 -24 14 72 -16z m-2447 -43
c14 -12 58 -61 98 -109 40 -48 95 -113 123 -145 55 -62 129 -169 129 -185 0
-5 -26 26 -59 70 -32 43 -66 82 -75 85 -9 4 -16 12 -16 20 0 7 -12 24 -27 38
-33 29 -38 38 98 -158 166 -238 356 -590 479 -888 68 -166 186 -510 235 -687
34 -119 41 -136 54 -125 40 32 -19 -35 -79 -89 -115 -105 -160 -150 -160 -162
0 -7 -5 -12 -12 -12 -16 0 -118 -101 -118 -116 0 -6 -15 -22 -32 -34 -18 -12
-53 -47 -77 -76 -24 -30 -59 -66 -77 -81 -87 -70 -220 -188 -232 -205 -7 -10
-18 -18 -24 -18 -7 0 32 44 85 99 53 54 97 101 97 103 0 3 -15 0 -34 -6 -37
-13 -198 -14 -263 -2 l-41 8 5 -42 c4 -28 2 -41 -4 -37 -6 4 -25 -7 -43 -23
-19 -17 -37 -30 -42 -30 -4 0 -3 -11 2 -25 9 -24 8 -27 -16 -29 -6 -1 -28 -19
-48 -41 -29 -31 -36 -35 -31 -18 5 18 3 22 -9 17 -10 -4 -16 -1 -17 7 0 8 -2
33 -4 57 -3 39 -2 42 11 25 14 -17 15 -16 8 7 -4 14 -11 28 -15 31 -5 3 -10
37 -12 77 -2 39 -6 75 -10 78 -4 4 -2 13 5 21 9 11 8 13 -1 11 -7 -2 -15 7
-17 20 -2 12 -1 22 4 22 4 0 8 20 9 45 1 33 -1 44 -10 39 -9 -5 -9 -4 0 6 6 7
9 19 6 28 -5 11 -3 13 7 7 10 -6 12 -3 8 13 -4 12 -2 22 3 22 6 0 5 9 -2 21
-6 12 -9 30 -6 40 3 10 0 19 -6 19 -6 0 -7 3 -4 7 4 3 2 12 -4 20 -9 10 -8 13
0 13 7 0 11 8 9 17 -2 9 7 22 19 28 16 9 19 15 11 23 -8 8 -16 7 -32 -3 -20
-13 -21 -12 -22 15 -1 29 13 31 44 7 22 -17 26 2 5 21 l-21 17 27 33 c28 33
58 42 66 20 4 -12 11 -96 18 -220 1 -27 6 -48 10 -48 5 0 6 -4 3 -9 -3 -5 1
-11 9 -15 17 -6 29 9 19 26 -11 17 -13 117 -3 124 5 3 9 0 9 -6 0 -6 5 -8 11
-5 7 5 6 14 -4 28 -9 14 -11 33 -7 54 5 20 2 42 -5 57 -10 19 -10 26 -2 30 9
3 8 7 -1 14 -10 7 -10 11 3 22 9 7 15 9 14 4 -1 -5 1 -16 4 -24 3 -8 8 -34 10
-58 9 -88 19 -53 16 53 l-4 110 155 7 c85 4 205 10 266 14 l111 6 -3 26 c-1
15 -2 32 -3 37 -1 6 -12 15 -25 21 -19 9 -23 9 -20 -1 4 -9 -8 -12 -40 -11
-25 1 -49 5 -52 9 -12 11 -24 8 -22 -5 3 -12 -45 -13 -84 -2 -10 3 -18 1 -18
-5 0 -11 -85 -9 -96 2 -11 10 -26 8 -19 -2 7 -13 -75 -12 -98 1 -12 6 -23 6
-32 -2 -11 -9 -15 -7 -21 15 -3 14 -5 28 -2 30 2 2 134 9 292 16 280 12 290
11 303 -7 12 -16 12 -19 -1 -22 -14 -3 -14 -5 -1 -19 8 -8 13 -19 10 -24 -4
-5 0 -9 7 -10 7 0 -2 -7 -20 -15 -30 -13 -32 -17 -20 -31 9 -12 9 -15 1 -9 -9
5 -13 0 -13 -17 0 -28 16 -37 66 -37 21 0 33 -4 29 -10 -3 -5 3 -10 14 -10 12
0 21 7 21 15 0 8 2 15 4 15 2 0 11 3 19 6 21 8 37 -48 32 -116 -5 -68 14 -200
29 -200 6 0 38 28 71 63 33 35 74 75 92 89 l32 26 -39 144 c-33 121 -92 304
-166 512 -15 44 -18 47 -25 28 -5 -12 -9 -83 -11 -157 l-2 -134 -28 -10 c-15
-6 -28 -14 -28 -18 0 -5 -18 -8 -39 -8 -21 0 -49 -6 -62 -12 -25 -12 -554 -37
-570 -27 -5 3 -9 57 -9 120 0 111 1 114 23 115 12 0 31 2 42 4 11 2 146 9 300
15 270 11 334 15 340 22 1 2 5 17 8 34 6 31 5 32 -43 41 -33 7 -48 7 -47 0 3
-15 -213 -17 -232 -3 -11 8 -13 8 -8 -1 4 -6 3 -14 -3 -18 -5 -3 -10 -2 -10 3
0 5 -18 7 -39 5 -22 -2 -42 1 -46 7 -10 16 -25 12 -18 -6 6 -16 -11 -15 -94 2
-18 3 -21 1 -16 -12 5 -14 2 -16 -18 -10 -13 4 -35 7 -48 7 -13 -1 -31 5 -39
11 -13 11 -15 10 -9 -4 10 -26 -29 -23 -43 3 -14 25 -6 49 14 49 10 0 13 6 10
15 -4 8 -1 15 5 15 6 0 11 -7 11 -15 0 -19 -17 -19 365 5 254 16 320 17 327 8
14 -23 9 9 -9 53 l-16 42 -161 -8 c-89 -4 -190 -10 -226 -14 -62 -6 -65 -7
-72 -36 -7 -30 -7 -30 -4 3 l3 34 -66 -6 c-36 -3 -95 -7 -131 -8 -62 -3 -65
-2 -68 21 -7 48 5 66 45 68 200 7 633 39 633 45 0 5 -16 45 -36 88 -34 73 -39
80 -66 80 -15 0 -37 -5 -48 -12 -15 -9 -27 -10 -52 -1 -73 25 -78 25 -71 8 5
-15 0 -16 -48 -10 -30 4 -60 12 -68 19 -11 9 -13 7 -6 -13 7 -22 6 -23 -36
-16 -24 3 -52 9 -63 12 -11 3 -16 1 -12 -5 8 -14 -35 -23 -51 -11 -6 6 -17 8
-23 4 -6 -4 -22 1 -35 9 -26 17 -34 9 -12 -13 10 -10 6 -12 -18 -9 -37 4 -41
22 -51 221 l-7 147 24 0 c79 2 400 27 405 33 9 9 -28 67 -43 67 -7 0 -13 4
-13 9 0 5 -14 11 -30 13 -23 4 -30 1 -28 -11 2 -12 -6 -16 -37 -16 -22 0 -39
5 -38 10 1 6 -11 10 -27 10 -17 1 -26 -4 -23 -11 2 -6 -8 -15 -24 -18 -20 -6
-31 -3 -40 10 -7 10 -19 14 -29 10 -9 -3 -23 -1 -30 5 -17 14 -19 -2 -2 -19 9
-9 5 -12 -19 -12 -25 0 -33 6 -43 30 -16 38 -7 169 12 181 10 7 9 9 -3 9 -17
0 -29 60 -29 148 l0 42 59 0 c33 0 62 4 65 8 2 4 -7 22 -21 40 -22 29 -29 32
-59 26 -38 -7 -39 -6 -22 31 10 21 9 27 -6 38 -18 13 -33 77 -18 77 4 0 18
-11 32 -23z m2480 -122 c74 -25 141 -47 148 -50 11 -4 11 -7 0 -19 -7 -8 -15
-12 -17 -10 -9 9 -29 -32 -20 -42 5 -7 4 -11 -6 -11 -8 0 -12 3 -10 7 3 4 -4
15 -15 25 -12 10 -20 13 -20 7 0 -7 5 -12 10 -12 6 0 10 -4 10 -10 0 -5 -8 -6
-17 -3 -13 5 -15 2 -10 -11 6 -14 3 -17 -9 -12 -8 3 -19 6 -24 6 -4 0 -6 9 -3
20 3 11 0 20 -6 20 -5 0 -8 -7 -5 -15 4 -10 0 -15 -16 -15 -13 0 -19 4 -14 12
4 6 3 8 -3 5 -13 -8 -133 31 -134 44 -4 38 -1 61 11 83 7 14 14 26 15 26 0 0
61 -20 135 -45z m2224 -109 c7 3 23 0 37 -6 21 -9 19 -9 -11 -4 -30 6 -33 5
-22 -8 6 -8 8 -18 4 -23 -4 -4 3 -2 15 6 12 7 25 11 28 8 9 -10 -6 -39 -18
-32 -6 3 -7 1 -3 -5 4 -7 18 -9 32 -6 14 4 24 2 24 -5 0 -6 7 -11 15 -11 8 0
15 -5 15 -11 0 -5 -5 -7 -10 -4 -12 7 -7 -36 6 -57 5 -7 2 -10 -7 -6 -8 3 -60
20 -116 38 -57 18 -100 37 -97 41 3 5 -1 7 -8 4 -7 -3 -40 4 -73 15 -42 13
-50 18 -25 15 19 -2 40 1 47 7 7 6 13 6 13 1 0 -5 25 -10 55 -10 30 0 52 3 49
8 -3 5 6 9 20 9 14 0 26 5 26 10 0 6 -4 10 -10 10 -5 0 -10 8 -9 18 0 9 3 12
5 5 3 -7 11 -10 18 -7z m-274 -68 c12 -7 11 -8 -4 -6 -10 2 -21 -2 -23 -9 -3
-9 4 -10 25 -4 37 11 90 3 70 -11 -10 -7 -8 -8 5 -4 25 8 68 -4 60 -17 -3 -6
-1 -7 6 -3 6 4 56 -7 111 -25 73 -23 100 -36 100 -48 0 -14 2 -14 10 -1 13 20
16 14 39 -69 14 -50 16 -71 8 -68 -7 2 -105 34 -219 71 -207 67 -232 81 -190
105 13 8 14 11 2 11 -8 1 -25 3 -38 6 -14 2 -21 0 -17 -6 3 -5 1 -10 -5 -10
-6 0 -9 -4 -6 -9 6 -10 -54 2 -99 19 -47 18 -67 60 -29 60 9 0 13 -5 9 -12 -4
-7 0 -5 8 5 13 15 16 15 27 2 10 -12 9 -16 -4 -21 -9 -3 -13 -10 -10 -16 3 -5
13 -1 21 9 11 13 16 15 20 5 4 -10 8 -10 21 0 13 11 14 11 7 -2 -8 -13 -7 -13
8 -1 24 19 21 30 -5 25 -21 -4 -21 -4 1 6 14 6 31 8 39 5 8 -3 12 0 9 7 -2 7
-10 12 -16 11 -6 -2 -11 2 -11 7 0 11 44 4 70 -12z m-1965 -32 c8 4 12 11 8
18 -4 6 1 5 10 -3 9 -7 17 -10 17 -5 0 5 4 4 8 -3 4 -7 25 -19 46 -28 21 -9
35 -11 31 -6 -7 13 -3 13 19 5 12 -5 13 -10 5 -26 -8 -15 -8 -19 0 -14 6 4 11
4 11 -1 0 -10 53 -11 60 -1 3 4 18 1 32 -6 20 -11 28 -11 32 -3 2 7 5 5 5 -4
1 -13 11 -15 54 -13 65 3 67 3 42 14 -13 6 -15 9 -5 9 8 0 22 -4 30 -9 12 -7
12 -10 1 -10 -8 0 -11 -6 -7 -15 4 -10 -2 -19 -17 -25 -12 -5 -17 -9 -10 -9 6
-1 19 -4 27 -7 12 -5 15 -2 9 12 -5 13 -3 15 7 9 8 -5 11 -4 7 2 -22 35 127
10 167 -27 18 -17 17 -18 -13 -25 -30 -6 -43 -24 -18 -26 9 0 9 -2 -1 -6 -22
-9 -3 -20 25 -15 25 5 25 6 8 13 -16 6 -17 8 -3 8 9 1 20 10 23 21 3 11 12 20
18 20 6 0 96 -28 200 -62 158 -53 187 -66 183 -80 -2 -10 1 -18 7 -19 7 0 20
-2 29 -4 10 -2 21 2 25 7 4 7 -1 9 -15 6 -13 -4 -23 0 -26 9 -6 15 -3 15 73
-12 31 -10 33 -12 13 -17 -13 -4 -22 -2 -22 5 0 7 -5 4 -11 -6 -6 -9 -14 -15
-20 -12 -5 4 -9 2 -9 -4 0 -5 6 -11 13 -14 6 -2 0 -6 -15 -9 -22 -4 -28 -1
-32 19 -8 31 -33 29 -64 -5 l-26 -28 -260 87 c-332 111 -662 224 -703 241 -18
7 -33 19 -32 28 0 10 2 11 6 3 2 -7 9 -13 14 -13 6 0 7 5 4 10 -3 6 2 10 11
10 14 0 15 3 6 12 -7 7 -12 17 -12 23 0 5 5 2 11 -7 5 -9 16 -15 24 -12z
m1742 -50 c93 -30 268 -87 391 -126 128 -41 220 -76 216 -81 -3 -6 -16 -14
-28 -19 -51 -19 -14 -58 43 -45 17 3 32 2 36 -5 3 -5 11 -7 17 -4 7 4 6 9 -1
13 -10 7 -25 51 -17 51 11 0 69 -29 60 -30 -7 0 -14 -7 -18 -15 -5 -13 4 -15
55 -12 33 2 62 1 64 -2 2 -4 18 -8 37 -9 18 -1 38 -9 44 -17 6 -8 18 -15 27
-15 9 0 19 -5 23 -11 3 -6 19 -9 35 -5 16 3 29 2 29 -3 0 -5 19 -11 41 -14 23
-3 46 -10 51 -15 6 -6 -55 -12 -169 -17 l-178 -7 -145 50 c-80 27 -184 62
-232 78 l-88 28 33 15 32 15 -28 4 c-16 2 -41 -1 -57 -7 -24 -8 -53 -1 -179
41 -93 31 -148 54 -144 61 3 6 1 7 -6 3 -6 -4 -25 -4 -42 -1 -27 6 -29 8 -13
20 17 12 17 14 1 38 -26 39 -22 56 11 51 l27 -4 -28 16 c-16 9 -37 12 -49 8
-13 -4 -18 -2 -14 4 3 6 0 13 -6 15 -7 3 -10 6 -6 6 4 1 83 -23 175 -53z
m-1684 -60 c180 -60 475 -161 610 -208 54 -19 83 -34 76 -39 -7 -4 -14 -15
-15 -24 -2 -14 1 -14 20 4 12 12 26 21 32 21 5 0 2 -5 -6 -10 -13 -8 -12 -10
3 -10 15 0 19 -6 16 -26 0 -4 5 -11 13 -15 9 -6 10 -9 1 -9 -19 0 -4 -26 21
-38 19 -8 61 -10 61 -2 0 1 12 4 28 6 18 2 25 -1 21 -8 -4 -7 -2 -8 5 -4 6 4
8 12 5 18 -5 8 -1 9 10 5 14 -5 17 -3 12 8 -3 8 -2 15 2 15 4 0 66 -20 137
-44 l130 -43 -45 -6 c-25 -3 -100 -8 -167 -11 l-121 -6 -129 46 c-70 26 -166
59 -213 75 -47 15 -139 46 -205 69 -66 23 -190 66 -275 95 -233 80 -230 78
-224 117 3 18 6 39 6 46 1 6 8 12 17 12 14 0 14 2 1 10 -31 20 14 9 173 -44z
m605 37 c-2 -13 7 -19 37 -24 22 -4 44 -4 49 -1 5 3 6 0 2 -6 -4 -7 -2 -12 3
-12 17 0 13 21 -5 35 -15 11 -15 12 1 12 9 0 21 -10 25 -22 5 -12 18 -25 29
-28 12 -3 19 -2 17 2 -3 4 -1 13 3 19 10 17 100 -27 94 -45 -3 -7 3 -13 12
-13 15 0 15 -1 0 -16 -9 -10 -13 -20 -8 -23 4 -3 12 -11 17 -16 6 -6 7 -3 3 8
-6 15 -4 16 13 7 16 -9 22 -7 27 6 8 22 -19 70 -38 66 -11 -3 -11 -1 -2 8 8 9
34 4 108 -21 71 -24 92 -35 78 -40 -16 -7 -16 -8 -1 -8 9 -1 20 -6 24 -13 5
-8 1 -9 -12 -4 -18 7 -18 6 -2 -10 17 -18 43 -11 32 9 -5 9 -4 9 6 0 9 -8 19
-8 34 -2 14 7 30 7 46 0 24 -10 24 -10 -7 -8 -31 2 -47 -13 -22 -22 7 -2 9 1
5 8 -5 7 -1 9 9 4 10 -3 12 -8 7 -12 -7 -4 -4 -15 7 -30 l18 -24 8 29 c5 16 7
33 6 38 -1 5 4 6 11 4 7 -3 71 -24 143 -48 102 -34 125 -45 108 -51 -29 -11
-55 -52 -47 -73 4 -10 10 -14 13 -9 3 4 16 13 28 20 17 10 22 9 27 -4 5 -13 9
-13 23 -2 14 12 16 12 9 0 -6 -9 -5 -12 5 -9 8 3 13 11 11 17 -1 7 5 19 13 27
14 14 25 12 111 -16 53 -18 103 -40 112 -50 10 -12 25 -17 44 -15 16 2 27 1
24 -3 -2 -4 10 -8 28 -9 18 -1 47 -8 66 -16 35 -15 35 -15 -50 -17 -47 -1
-125 -5 -175 -9 -87 -6 -94 -5 -200 31 -60 21 -158 55 -217 76 -60 20 -108 40
-108 44 0 4 8 4 18 1 16 -7 16 -6 0 11 -17 17 -44 14 -33 -4 3 -4 -11 -3 -30
2 -30 10 -33 13 -23 32 11 21 11 21 -10 2 -21 -18 -22 -18 -72 0 -28 10 -47
20 -41 22 6 2 11 10 11 19 0 12 -2 12 -16 -1 -18 -18 -30 -20 -39 -6 -4 6 -10
8 -14 5 -4 -2 -111 31 -237 74 -269 92 -268 91 -226 84 22 -4 32 -2 32 7 0 7
6 10 13 7 37 -14 57 -18 56 -10 -3 15 1 33 6 33 3 0 5 -8 3 -17z m842 -55 c29
-10 31 -12 14 -19 -13 -4 -4 -7 26 -7 55 -1 933 -290 883 -291 -18 -1 -99 -6
-180 -11 l-148 -11 -235 80 c-129 43 -248 84 -265 90 -16 6 -122 42 -235 80
-113 39 -198 70 -190 69 8 0 26 -3 40 -7 17 -5 29 -2 37 8 10 14 11 13 6 -6
-6 -24 12 -32 20 -10 4 7 6 6 6 -4 1 -9 10 -19 22 -22 20 -5 20 -5 3 14 -9 10
-14 22 -11 26 4 3 7 1 7 -5 0 -7 4 -12 10 -12 5 0 7 7 4 15 -4 10 0 15 12 14
11 0 14 -3 7 -6 -9 -3 -10 -10 -3 -22 5 -10 6 -22 2 -27 -4 -5 2 -2 12 6 11 8
27 14 38 12 10 -2 18 3 18 10 1 8 4 7 10 -4 6 -9 18 -15 28 -14 9 2 23 -4 30
-13 11 -14 11 -13 2 7 -8 17 -8 22 2 23 10 0 10 2 0 6 -6 2 -9 9 -6 15 4 6 0
14 -7 19 -20 12 2 11 41 -3z m-4112 -53 c8 -17 8 -25 1 -25 -6 0 -7 -9 -3 -22
4 -13 8 -41 9 -63 1 -22 6 -51 12 -65 11 -28 6 -60 -10 -60 -7 0 -7 -4 1 -12
8 -8 8 -15 1 -24 -7 -8 -7 -14 1 -19 5 -3 10 -19 10 -35 0 -16 5 -32 10 -35 7
-4 7 -13 0 -25 -11 -21 -3 -73 10 -65 11 7 23 -47 12 -54 -5 -3 -8 -15 -6 -26
2 -11 4 -40 5 -63 2 -26 8 -46 16 -49 7 -3 13 -9 13 -15 0 -5 -5 -6 -11 -2 -9
5 -10 -21 -7 -97 4 -85 3 -99 -6 -76 -7 15 -15 25 -18 22 -7 -7 14 -88 26 -96
5 -4 6 -14 3 -22 -3 -8 0 -20 6 -26 8 -8 8 -11 -2 -11 -7 0 -9 -5 -6 -10 4 -6
2 -17 -4 -24 -13 -16 4 -169 19 -174 6 -2 10 -8 10 -14 0 -6 -7 -8 -15 -4 -8
3 -15 1 -15 -4 0 -6 3 -10 8 -10 4 0 7 -20 7 -45 0 -25 -4 -45 -8 -45 -5 0 -5
-5 -1 -12 4 -6 7 -26 6 -44 -1 -18 2 -36 7 -38 5 -3 5 -23 1 -45 -4 -22 -4
-45 1 -52 4 -7 5 -18 2 -26 -3 -7 0 -13 6 -13 6 0 11 -5 11 -11 0 -6 -7 -8
-16 -5 -10 4 -35 -5 -60 -19 -39 -23 -43 -23 -48 -8 -7 25 0 149 10 164 4 7 3
10 -4 5 -8 -5 -11 26 -11 104 1 61 -1 114 -4 117 -8 7 14 63 25 63 5 0 6 5 2
11 -4 7 -14 0 -25 -18 -22 -33 -24 -23 -5 32 7 22 16 54 20 70 6 28 5 29 -9
11 -8 -11 -15 -15 -15 -9 0 7 7 19 16 27 8 9 13 24 10 33 -3 10 -6 37 -8 61
-1 23 -6 42 -10 42 -5 0 -6 -16 -2 -35 3 -19 2 -35 -2 -35 -5 0 -10 18 -12 40
-1 22 2 40 8 40 5 0 10 5 10 11 0 5 -4 8 -9 4 -5 -3 -12 -1 -16 5 -3 5 1 10 9
10 9 0 16 5 16 10 0 6 -4 10 -10 10 -5 0 -10 18 -10 40 0 22 5 40 10 40 6 0
10 5 10 11 0 5 -5 7 -10 4 -10 -6 -7 21 6 63 2 7 -5 12 -17 12 -15 0 -19 5
-15 16 3 9 6 20 6 25 0 6 4 8 8 5 4 -2 14 -1 22 5 12 7 12 9 -3 9 -13 0 -17 5
-13 18 8 29 10 107 3 119 -4 7 1 17 10 23 13 8 14 10 2 7 -24 -8 -21 103 3
121 22 16 23 32 2 32 -12 0 -15 7 -12 25 3 14 1 28 -4 31 -4 3 -5 11 -1 17 10
16 11 47 2 47 -11 0 -1 94 11 98 5 2 10 8 10 13 0 6 -4 7 -10 4 -5 -3 -10 3
-10 14 0 29 24 26 38 -4z m2570 -51 c117 -39 149 -53 120 -54 -22 0 -24 -26
-2 -34 33 -13 45 -7 33 15 -10 19 -9 20 13 14 95 -28 140 -50 149 -72 5 -13
13 -21 19 -18 5 3 10 2 10 -3 0 -12 30 -20 48 -14 10 3 10 7 0 20 -11 13 -11
15 2 10 8 -2 123 -43 255 -89 l240 -84 -120 -7 c-66 -3 -143 -7 -171 -9 -43
-2 -88 11 -257 71 -159 56 -206 77 -210 92 -5 16 -8 17 -25 7 -17 -11 -35 -7
-113 23 l-94 36 -5 66 c-3 36 -4 66 -2 66 2 0 51 -16 110 -36z m1380 -159
c107 -36 112 -39 90 -52 -21 -13 -19 -14 27 -9 30 3 42 2 31 -2 -19 -8 -19 -9
-1 -16 35 -13 -14 -33 -101 -40 -81 -6 -82 -6 -250 53 -93 33 -164 60 -158 60
7 1 47 -11 89 -25 63 -21 79 -24 86 -13 23 38 35 49 54 50 17 1 17 2 3 6 -10
2 -18 8 -18 12 0 12 13 22 24 18 6 -2 62 -21 124 -42z m-1013 -126 c105 -39
123 -48 95 -49 -19 -1 -87 -5 -150 -9 -112 -8 -118 -7 -210 23 -85 27 -92 31
-63 36 26 4 31 8 23 20 -15 23 -12 30 14 30 15 0 27 -7 31 -19 9 -31 31 -44
52 -32 10 6 12 11 6 11 -7 0 -13 5 -13 11 0 6 7 8 16 5 11 -4 18 1 21 14 6 24
-1 26 178 -41z m2550 -159 c3 -5 12 -7 19 -4 18 7 32 -34 17 -49 -7 -7 -28 -4
-69 11 -55 21 -67 21 -178 12 -65 -5 -122 -10 -126 -10 -5 0 -8 -7 -8 -15 0
-8 -6 -15 -12 -15 -7 -1 0 -8 15 -16 16 -9 35 -13 43 -10 8 3 13 2 10 -2 -3
-5 27 -19 65 -31 39 -12 69 -25 67 -27 -3 -2 -50 12 -106 30 -96 33 -107 33
-103 4 0 -3 -35 -5 -78 -5 -44 1 -74 -2 -68 -6 32 -21 49 -29 43 -18 -4 7 1
11 13 11 12 0 21 -6 21 -12 0 -10 2 -10 9 0 6 10 11 9 22 -4 9 -11 9 -15 2
-10 -9 5 -11 2 -7 -8 3 -9 10 -14 14 -11 5 3 11 -1 13 -7 3 -8 6 -6 6 4 1 14
9 17 40 13 22 -2 50 -11 64 -19 14 -10 32 -14 42 -10 13 5 16 4 11 -4 -4 -7
-14 -12 -22 -12 -8 0 -12 -4 -9 -10 3 -5 18 -10 33 -10 36 0 54 -13 46 -33 -3
-10 -1 -24 6 -32 17 -20 10 -19 -81 12 -51 18 -74 30 -66 36 7 5 4 6 -9 3 -12
-4 -132 31 -303 89 -155 52 -289 95 -298 95 -24 0 -7 -13 35 -26 45 -14 670
-229 693 -239 15 -6 15 -10 -3 -43 -37 -70 -43 -79 -58 -74 -8 3 -242 82 -520
177 -597 204 -541 187 -560 175 -13 -8 -12 -10 3 -10 19 0 970 -323 997 -339
9 -5 30 -12 48 -16 18 -3 32 -9 32 -12 0 -9 -53 -77 -62 -81 -4 -2 -8 -11 -8
-19 0 -11 -7 -14 -27 -8 -24 6 -670 229 -1185 409 -103 36 -189 62 -192 58 -2
-4 215 -83 482 -177 940 -326 890 -307 881 -332 -6 -16 -13 -20 -31 -16 l-23
6 20 -22 c19 -21 19 -24 3 -35 -10 -7 -15 -16 -11 -19 22 -23 -87 12 -503 159
-258 91 -552 195 -654 231 -429 150 -492 173 -508 183 -15 9 -14 10 4 5 12 -3
40 -2 62 3 28 7 44 6 52 -2 8 -8 10 -7 5 4 -4 12 6 16 57 18 35 2 79 5 98 7
62 7 439 34 630 45 102 6 237 15 300 20 63 5 165 12 225 16 l110 6 -19 -21
c-19 -21 -16 -25 17 -22 9 1 17 -2 17 -7 0 -6 9 -8 20 -5 12 3 20 0 20 -7 0
-8 -12 -10 -38 -5 -29 5 -39 3 -39 -7 0 -10 14 -14 46 -13 38 0 45 3 43 18 -4
22 46 24 54 2 4 -8 10 -15 15 -15 5 0 9 7 9 15 0 8 -4 15 -10 15 -19 0 -10 39
13 52 33 20 371 36 382 18z m104 -207 c1 -17 6 -35 12 -39 8 -5 10 -33 6 -88
-9 -124 14 -390 36 -414 22 -24 21 -27 -4 -29 -15 -1 -19 2 -15 13 3 9 -1 22
-9 31 -11 11 -14 25 -9 50 l7 35 -111 -4 c-129 -4 -141 -10 -124 -64 8 -27 8
-41 -1 -55 -9 -14 -9 -22 -1 -27 6 -4 11 -15 11 -24 0 -13 -12 -18 -51 -22
-265 -28 -319 -36 -331 -46 -8 -7 -15 -25 -15 -41 0 -26 -4 -29 -30 -29 -37 0
-37 0 52 122 35 48 94 132 132 187 38 55 73 98 76 96 4 -2 7 2 7 9 0 7 39 71
88 142 82 120 131 185 91 121 -9 -15 -14 -33 -10 -39 4 -6 3 -8 -4 -4 -19 12
-24 -15 -6 -35 9 -10 14 -20 11 -20 -4 -1 -11 -2 -17 -3 -5 0 -11 -5 -11 -11
-1 -5 -10 -16 -20 -23 -11 -7 -19 -20 -19 -28 0 -20 -41 -74 -52 -68 -4 3 -8
-4 -8 -15 0 -11 -5 -23 -10 -26 -6 -4 -8 -9 -6 -13 6 -10 -16 -38 -34 -44 -10
-3 -11 -6 -3 -11 13 -8 189 236 187 258 -1 8 3 13 10 12 6 -1 10 4 9 11 -2 6
1 12 6 12 5 0 17 12 26 27 17 25 17 27 0 39 -16 12 -16 13 3 11 11 0 18 -6 15
-12 -9 -15 10 5 35 39 12 15 19 33 15 39 -3 5 -2 7 4 4 5 -3 18 8 28 26 l19
32 7 -25 c4 -14 7 -39 8 -57z m-2009 -17 c498 -171 1459 -512 1468 -521 6 -6
-61 -115 -71 -115 -5 0 -138 47 -295 103 -158 57 -424 152 -592 212 -624 220
-950 338 -946 343 2 2 25 -4 50 -12 62 -21 86 -21 84 2 -3 43 2 53 23 47 14
-5 19 -3 15 3 -3 6 0 13 6 15 7 3 13 6 13 6 1 1 111 -37 245 -83z m-427 -20
c7 2 98 -24 202 -60 263 -89 1595 -564 1604 -572 5 -4 -13 -39 -34 -67 -7 -10
-30 -23 -50 -27 -33 -7 -60 0 -209 55 -94 34 -389 140 -656 235 -267 95 -564
202 -660 237 -96 35 -222 81 -280 102 -180 66 -215 80 -204 80 6 1 31 -6 55
-15 24 -9 68 -17 97 -18 43 -3 56 1 67 17 8 12 18 16 27 11 7 -4 10 -4 6 0 -4
5 -1 14 5 21 7 7 13 9 15 5 2 -5 9 -7 15 -4z m-32 -135 c96 -32 329 -115 519
-184 516 -188 663 -241 910 -329 260 -93 261 -93 233 -102 -12 -4 -39 -26 -60
-49 l-40 -43 -619 226 c-508 185 -631 233 -684 269 -67 45 -223 96 -283 93
-41 -2 -347 117 -341 133 7 18 136 23 142 5 3 -7 11 -5 23 6 17 16 19 16 19 1
0 -19 15 -22 26 -5 5 7 3 8 -6 3 -10 -6 -12 -4 -7 8 3 9 1 18 -6 21 -7 2 -9 5
-6 5 3 1 84 -25 180 -58z m-8442 11 c9 -8 10 -11 4 -7 -7 3 -13 2 -13 -3 0 -5
9 -12 19 -15 14 -3 18 -1 14 9 -3 8 3 17 13 21 10 4 19 2 22 -5 2 -6 9 -9 17
-6 7 3 16 0 21 -7 4 -8 3 -10 -4 -5 -7 4 -12 2 -12 -3 0 -6 5 -11 10 -11 6 0
10 -7 10 -15 0 -8 -6 -12 -14 -9 -8 3 -17 1 -21 -5 -3 -6 1 -11 9 -11 22 0 20
-13 -5 -29 l-22 -13 27 -23 c30 -26 32 -31 10 -39 -8 -3 -12 -2 -9 4 9 14 -7
12 -28 -5 -11 -7 -26 -11 -35 -8 -13 5 -14 3 -6 -6 9 -10 17 -10 33 -2 12 7
21 8 21 3 0 -5 -10 -13 -23 -19 -16 -8 -25 -7 -34 3 -10 10 -7 22 13 58 22 39
23 46 9 46 -9 0 -22 -13 -28 -30 -6 -16 -17 -30 -25 -30 -7 0 -10 -4 -7 -10 3
-5 1 -10 -5 -10 -7 0 -9 12 -4 37 4 20 8 50 9 67 5 104 7 120 12 106 4 -8 13
-21 22 -28z m3027 -47 c4 -8 17 -15 30 -15 21 0 24 -5 25 -37 1 -21 0 -45 -1
-52 -1 -12 1 -13 13 -2 20 16 58 -7 75 -44 7 -14 17 -24 24 -23 7 2 12 -5 10
-14 -3 -17 35 -45 46 -34 3 3 1 6 -5 6 -6 0 -13 11 -15 24 -6 28 18 44 36 25
8 -9 7 -10 -5 -6 -13 4 -15 1 -12 -14 3 -11 9 -21 13 -24 5 -3 6 -14 3 -25 -4
-16 0 -20 17 -20 19 0 21 4 16 25 -4 14 -2 25 3 25 15 0 31 -34 31 -64 0 -14
5 -26 11 -26 6 0 9 7 5 15 -5 13 -2 14 15 5 11 -6 18 -17 16 -23 -2 -7 4 -19
14 -27 9 -9 17 -25 16 -35 -1 -12 8 -24 26 -33 15 -7 33 -25 38 -39 14 -38 41
-56 55 -38 9 12 13 6 23 -27 10 -31 10 -42 1 -48 -14 -8 -4 -50 11 -50 5 0 8
3 8 8 -3 18 2 32 11 32 6 0 10 -15 10 -33 0 -28 4 -33 21 -33 12 1 24 -5 27
-13 3 -8 0 -11 -7 -7 -13 8 -13 1 -5 -44 4 -19 10 -27 14 -20 11 18 33 1 25
-19 -5 -14 -4 -14 11 1 17 17 19 16 31 -14 7 -17 16 -28 20 -25 3 4 1 13 -5
20 -7 8 -9 16 -6 20 7 6 44 -29 44 -42 0 -6 10 -17 23 -26 17 -12 19 -17 8
-24 -7 -5 -11 -13 -8 -18 3 -4 -6 -13 -19 -20 -15 -7 -24 -7 -24 -1 0 15 -43
58 -57 58 -7 0 -13 5 -13 10 0 6 -9 10 -21 10 -16 0 -19 4 -14 20 5 16 -1 23
-33 36 -29 11 -42 23 -47 42 -13 52 -73 94 -101 71 -14 -11 -34 -5 -34 12 0 5
9 9 20 9 11 0 20 5 20 11 0 8 -11 9 -32 5 -24 -4 -29 -3 -18 4 8 5 25 10 38
10 24 0 25 16 3 39 -10 11 -17 12 -30 4 -12 -8 -22 -6 -41 7 -14 10 -34 20
-45 22 -18 5 -18 6 5 16 l25 11 -31 0 c-22 1 -39 11 -61 36 -17 19 -39 35 -49
35 -9 0 -14 3 -11 7 4 3 -1 11 -10 18 -14 10 -11 13 18 19 20 5 28 10 20 13
-26 10 -61 55 -71 91 -9 33 -80 114 -80 92 0 -17 -22 -11 -41 11 -10 11 -22
18 -28 15 -5 -4 -13 -1 -17 5 -3 6 0 15 7 20 10 6 8 9 -8 9 -15 0 -23 6 -24
18 -1 9 -2 24 -3 32 -1 15 23 48 37 49 4 1 10 -6 13 -14z m6229 -416 c242 -88
508 -185 590 -215 l150 -55 0 -74 c0 -41 -1 -75 -2 -75 -2 0 -262 96 -287 106
-12 5 -17 4 -13 -3 4 -6 76 -36 162 -68 85 -32 155 -61 155 -65 0 -4 -15 -27
-34 -51 -39 -52 -59 -56 -133 -29 -29 11 -53 16 -53 11 0 -4 28 -18 63 -31 34
-12 64 -24 66 -26 2 -1 -6 -16 -18 -32 -23 -32 -26 -42 -13 -42 4 0 34 41 66
90 32 50 61 90 65 90 4 0 20 -14 37 -31 53 -56 99 -74 192 -74 62 0 85 4 92
15 8 12 10 12 10 1 0 -10 3 -11 13 -3 7 6 38 14 68 17 30 3 73 9 97 14 23 4
45 5 47 0 6 -9 -11 -14 -102 -29 -40 -7 -75 -15 -78 -20 -3 -5 18 -22 45 -39
28 -17 53 -38 57 -46 11 -29 52 -42 107 -34 149 21 143 22 155 -13 17 -47 14
-88 -6 -95 -33 -11 -63 -46 -57 -65 3 -10 1 -18 -5 -18 -6 0 -11 8 -11 19 0
29 -71 42 -111 21 -15 -9 -17 -15 -9 -29 10 -20 17 -18 -142 -37 -56 -6 -58
-6 -70 22 -6 16 -11 47 -10 69 0 22 -2 34 -5 27 -2 -6 -9 -10 -14 -6 -5 3 -5
13 1 25 9 16 7 21 -15 29 -15 6 -31 7 -36 4 -17 -10 -39 17 -39 47 0 15 -5 31
-12 35 -13 8 -153 7 -180 -2 -13 -4 -18 -16 -18 -38 0 -28 -4 -34 -27 -39 -16
-3 -35 -8 -44 -12 -13 -5 -16 1 -17 27 -1 23 -9 39 -29 55 -15 13 -31 23 -35
23 -17 0 -6 -26 20 -46 24 -20 26 -25 14 -44 -8 -14 -9 -26 -3 -38 5 -10 11
-47 12 -82 l3 -65 -35 -3 c-19 -2 -38 -8 -43 -13 -6 -5 -25 -9 -44 -9 -18 0
-41 -4 -50 -9 -9 -4 -29 -11 -44 -15 -22 -5 -28 -3 -28 9 0 9 -5 13 -11 10 -6
-4 -9 0 -7 10 2 10 -3 20 -11 23 -10 3 -12 0 -8 -11 6 -17 -15 -29 -36 -21 -8
3 -18 -9 -27 -31 -13 -33 -25 -40 -59 -36 -8 2 -10 -2 -5 -10 5 -9 2 -10 -9
-6 -9 3 -19 1 -23 -5 -10 -15 -24 11 -24 45 0 32 -16 67 -30 67 -6 0 -10 -7
-10 -15 0 -8 -5 -15 -11 -15 -5 0 -7 -4 -4 -10 3 -5 2 -10 -4 -10 -19 0 -23
44 -16 182 6 122 13 187 30 263 3 11 11 49 19 85 8 36 20 79 27 95 7 17 11 36
10 43 -1 6 3 12 9 12 6 0 16 14 22 31 8 23 15 29 29 26 17 -5 17 -3 2 19 -13
21 -23 24 -72 24 -46 0 -100 16 -304 91 -137 50 -251 89 -253 86 -3 -3 19 -14
48 -25 29 -11 135 -50 236 -87 l182 -68 -52 -24 c-32 -16 -79 -27 -119 -30
-60 -5 -76 -1 -187 40 -67 24 -124 42 -127 39 -8 -9 -5 -66 5 -82 12 -19 40
-4 55 28 6 14 15 20 25 16 8 -3 42 -16 75 -27 46 -17 54 -22 35 -25 -94 -10
-326 -29 -329 -26 -2 2 8 8 22 15 16 7 31 28 42 55 9 24 27 59 40 79 18 26 23
43 19 65 -4 16 -1 43 6 60 11 26 10 37 -5 76 -9 24 -28 58 -42 74 -14 17 -21
30 -16 30 4 0 206 -72 448 -161z m-1283 -324 c11 -3 41 -20 66 -40 25 -19 55
-35 66 -35 30 -1 107 -23 131 -38 19 -11 19 -13 3 -26 -10 -7 -18 -19 -18 -27
0 -31 -29 -94 -44 -97 -9 -2 -16 -7 -16 -11 0 -4 -16 -5 -35 -3 -21 3 -35 0
-35 -7 0 -6 9 -11 20 -11 11 0 20 -5 20 -11 0 -5 4 -8 9 -4 5 3 13 0 17 -6 4
-8 3 -9 -4 -5 -16 10 -16 -26 0 -42 9 -9 4 -12 -23 -12 -19 0 -43 -6 -53 -13
-16 -12 -14 -14 18 -30 l35 -16 -4 -77 c-3 -52 -11 -88 -25 -111 -22 -37 -26
-63 -9 -63 5 0 7 -4 4 -10 -3 -5 -8 -42 -10 -81 -2 -39 -6 -73 -9 -77 -4 -3
-17 -6 -31 -7 -27 -1 -32 14 -15 46 10 18 8 19 -24 15 -25 -3 -36 0 -40 11 -4
9 -14 13 -25 10 -10 -2 -26 0 -35 5 -12 7 -16 6 -14 -4 2 -8 -8 -14 -24 -16
-30 -4 -36 6 -15 27 10 10 9 14 -5 22 -15 8 -18 24 -18 79 0 39 2 70 3 70 2 0
48 -18 102 -40 54 -22 101 -38 103 -35 7 7 7 7 -103 52 l-100 41 -9 67 c-5 36
-6 68 -3 72 7 6 20 2 165 -55 56 -22 102 -37 102 -33 0 4 -59 31 -131 61 -72
29 -133 59 -135 65 -3 7 -4 40 -2 73 l3 61 98 -38 c53 -22 97 -35 97 -31 0 4
-44 25 -97 47 l-98 39 -6 70 c-4 38 -6 70 -5 71 1 1 73 -25 160 -58 87 -33
161 -58 164 -55 8 8 12 7 -153 70 -82 32 -153 61 -156 65 -4 3 -9 36 -13 73
l-7 68 71 -26 c39 -14 81 -27 92 -29z m1293 5 c-3 -6 -2 -10 4 -10 5 0 17 -3
27 -7 11 -4 15 -3 11 4 -5 7 4 10 23 9 17 -1 30 1 30 6 0 4 9 8 20 8 20 0 20
-1 5 -30 -8 -16 -16 -33 -16 -37 -4 -25 -15 -33 -45 -33 -26 0 -32 3 -28 15 4
10 0 15 -15 15 -12 0 -21 -4 -21 -10 0 -5 5 -10 12 -10 6 0 8 -3 5 -6 -4 -4
-13 -1 -22 6 -12 10 -15 10 -15 -3 0 -11 -5 -14 -17 -10 -22 8 -69 8 -105 -2
-21 -5 -30 -2 -40 14 -13 21 -38 29 -38 11 0 -5 -7 -7 -15 -4 -8 4 -15 1 -15
-5 0 -6 6 -11 14 -11 8 0 18 -5 21 -10 4 -7 -2 -9 -19 -4 -16 4 -33 1 -43 -7
-9 -8 -14 -9 -10 -3 7 12 -15 22 -63 30 -56 9 -70 15 -70 29 0 9 6 12 17 8 11
-4 14 -3 9 5 -5 8 1 12 16 12 19 0 20 -2 8 -10 -12 -8 -9 -9 11 -8 17 1 25 7
22 15 -3 7 2 13 11 13 9 0 16 -4 16 -10 0 -5 11 -10 25 -10 17 0 23 4 19 14
-4 11 8 15 51 18 31 1 66 0 77 -5 11 -4 26 -3 32 2 10 8 23 11 94 18 13 2 20
-1 17 -7z m-5441 -148 c0 -16 3 -19 10 -12 15 15 39 13 30 -2 -5 -9 -2 -8 9 1
22 17 34 7 17 -14 -7 -9 -11 -16 -9 -18 37 -21 52 -27 68 -27 11 0 23 -5 27
-12 5 -7 2 -9 -8 -6 -8 4 -21 3 -28 -2 -9 -6 -7 -10 9 -15 11 -3 21 -13 21
-21 0 -8 5 -12 10 -9 6 4 8 10 5 15 -3 4 5 6 16 3 21 -6 21 -7 3 -20 -18 -13
-18 -14 4 -19 12 -4 22 -11 22 -16 0 -5 4 -6 10 -3 6 3 7 -1 4 -9 -7 -17 31
-37 54 -29 6 3 12 0 12 -6 0 -6 -3 -10 -7 -10 -18 3 -33 -2 -33 -10 0 -5 6 -9
13 -8 32 1 47 -4 47 -16 0 -7 9 -20 20 -30 11 -9 17 -23 14 -31 -4 -11 3 -14
28 -13 23 2 32 -2 30 -12 -2 -8 3 -11 13 -8 10 4 15 1 15 -11 0 -14 9 -19 42
-21 49 -2 59 -8 38 -21 -9 -6 -16 -6 -18 0 -2 6 -8 7 -13 4 -13 -8 41 -54 64
-54 9 0 17 -4 17 -10 0 -5 9 -10 20 -10 17 0 19 -3 11 -19 -12 -22 2 -31 47
-31 20 0 23 -3 14 -12 -19 -19 -14 -28 14 -28 19 0 25 -4 20 -15 -3 -9 0 -15
9 -15 9 0 12 -6 9 -15 -4 -8 -1 -15 6 -15 7 0 10 -7 7 -14 -4 -9 -1 -13 6 -10
7 2 29 -16 51 -40 22 -25 44 -42 52 -39 8 3 16 -5 20 -21 3 -14 10 -26 15 -26
13 0 124 -111 124 -124 0 -17 -34 -48 -46 -40 -5 3 -19 -4 -29 -16 -24 -27
-37 -19 -46 25 -5 31 -24 50 -24 26 0 -14 -56 7 -71 26 -10 12 -10 16 2 24 12
7 11 9 -2 9 -25 0 -70 46 -63 64 3 9 1 16 -6 16 -6 0 -8 5 -5 10 3 6 1 10 -5
10 -14 0 -90 77 -90 91 0 5 -7 9 -15 9 -18 0 -20 16 -2 24 6 4 -2 4 -19 2 -24
-4 -37 1 -54 19 -12 13 -19 28 -16 34 4 5 -27 44 -68 85 -41 42 -77 85 -81 96
-3 11 -11 20 -16 20 -5 0 -9 11 -9 25 0 14 5 25 12 25 6 0 9 3 5 6 -3 3 -15 0
-26 -8 -12 -8 -18 -18 -14 -21 3 -4 1 -7 -5 -7 -7 0 -12 4 -12 8 0 14 -56 72
-69 72 -8 0 -11 7 -7 15 3 9 0 25 -7 36 -10 16 -9 21 2 28 9 6 10 11 2 15 -6
4 -11 2 -11 -3 0 -6 -6 -11 -14 -11 -8 0 -16 -6 -19 -12 -3 -7 -8 6 -12 30 -8
43 -25 58 -25 21 0 -18 -2 -19 -15 -5 -9 8 -14 19 -13 23 1 4 -5 22 -15 38
l-16 30 -1 -30 0 -30 -24 30 c-15 19 -21 34 -15 40 5 5 9 14 9 20 0 5 -5 3
-10 -5 -6 -10 -10 -11 -10 -2 0 6 -9 12 -20 12 -12 0 -24 9 -29 23 -11 28 -4
39 22 35 16 -2 22 -10 21 -26z m3013 -39 c1 -10 5 -32 8 -48 9 -44 -28 -129
-78 -180 -23 -23 -55 -69 -71 -101 -26 -51 -84 -147 -108 -179 -9 -12 -123
-173 -137 -195 -64 -95 -161 -225 -136 -181 5 9 4 12 -3 7 -6 -4 -9 -13 -5
-21 3 -8 0 -15 -6 -15 -15 0 -2 -28 56 -130 l49 -85 95 -5 c52 -3 85 -8 74
-11 -11 -4 5 -7 38 -8 44 -1 57 2 57 14 0 15 -11 19 -38 16 -12 -2 -48 67 -39
75 2 3 23 1 46 -5 29 -6 43 -6 48 2 4 7 10 2 14 -13 12 -43 10 -60 -8 -60 -14
0 -14 -3 4 -22 38 -43 23 -47 -128 -41 l-139 5 10 -27 c5 -14 10 -28 10 -31 0
-3 -42 -3 -93 0 -76 3 -103 9 -146 30 -39 20 -51 31 -47 43 6 14 -3 15 -66 11
-40 -3 -79 -7 -87 -9 -9 -3 -24 33 -51 126 l-39 130 41 37 c30 28 55 41 98 50
33 6 58 14 58 17 -2 20 4 31 17 31 18 0 19 8 1 41 -23 45 -28 79 -12 79 9 0
21 10 27 23 6 12 13 24 15 26 7 7 44 -42 44 -57 0 -12 5 -11 20 6 23 25 39 30
20 7 -7 -8 -10 -15 -6 -15 4 0 -1 -11 -10 -25 -9 -14 -12 -25 -7 -25 5 0 16
12 24 28 7 15 20 38 28 51 14 22 15 22 22 5 5 -13 8 -5 8 24 1 46 20 59 22 15
2 -28 2 -28 6 -3 3 14 10 29 17 33 7 6 4 7 -6 3 -11 -3 -18 0 -18 8 0 9 8 12
25 8 19 -3 25 0 25 14 0 31 24 84 38 84 7 0 10 -5 6 -11 -4 -7 -1 -10 7 -7 8
3 14 9 14 14 1 5 10 24 21 41 16 25 23 30 32 21 12 -12 16 1 15 40 -1 7 11 19
25 25 29 13 63 43 56 50 -2 2 14 23 36 47 22 24 40 49 40 57 0 7 6 13 14 13 7
0 19 7 26 15 10 13 9 15 -9 15 -12 0 -20 4 -16 10 3 5 12 7 19 4 9 -3 17 3 21
15 3 12 13 21 20 21 8 0 17 5 21 12 5 7 3 8 -6 3 -9 -5 -11 -3 -6 6 3 8 9 22
12 32 4 12 13 17 25 14 12 -3 19 0 19 9 0 20 25 17 27 -3z m-2498 -208 c17
-20 31 -40 31 -45 0 -6 6 -10 14 -10 8 0 25 -15 37 -32 29 -42 46 -59 56 -58
4 1 10 -7 14 -17 4 -10 8 -14 8 -9 1 14 61 -46 61 -61 0 -7 4 -13 9 -13 14 0
194 -184 214 -219 16 -27 16 -32 3 -37 -23 -9 -105 26 -124 53 -9 14 -29 37
-44 53 -14 16 -29 38 -33 49 -7 23 -21 28 -27 9 -3 -7 -17 6 -32 30 -15 23
-36 52 -46 62 -11 11 -26 35 -34 52 l-14 33 -10 -25 c-8 -20 -11 -21 -11 -6
-1 16 -3 17 -18 5 -15 -13 -16 -11 -10 17 5 28 1 37 -34 73 -24 24 -37 46 -33
52 4 7 3 9 -4 5 -6 -3 -13 3 -17 14 -4 11 -10 18 -15 15 -11 -7 -40 22 -40 41
0 8 -4 14 -10 14 -11 0 -14 33 -4 43 8 8 72 -42 113 -88z m-4399 -100 c10 -12
10 -18 0 -30 -9 -11 -9 -15 -1 -15 7 0 9 -5 6 -11 -4 -6 -13 -8 -20 -5 -7 2
-16 -2 -19 -10 -3 -8 -2 -14 2 -14 13 0 47 28 48 39 1 6 2 17 3 24 1 7 4 8 9
2 4 -5 21 -10 37 -10 24 0 29 -4 27 -19 -2 -10 1 -15 6 -12 6 3 27 -1 47 -10
l37 -15 -7 -47 c-4 -26 -12 -50 -18 -54 -9 -6 -9 -8 -1 -8 9 0 8 -18 -1 -67
-7 -38 -11 -71 -8 -76 2 -4 -2 -13 -9 -20 -11 -10 -16 -9 -30 5 -10 10 -15 18
-12 18 3 0 2 5 -1 11 -5 6 -12 4 -20 -8 -13 -17 -13 -17 -12 2 2 15 -3 19 -21
18 -13 -2 -21 1 -17 7 3 5 -4 12 -17 15 -23 6 -57 56 -35 52 6 -1 12 8 13 21
1 21 0 22 -22 7 -13 -8 -24 -12 -24 -8 0 5 9 14 20 21 11 7 20 17 20 23 0 5
-4 8 -9 4 -5 -3 -13 5 -17 17 -3 12 -13 28 -20 35 -9 10 -11 21 -4 38 5 14 7
25 3 25 -3 0 6 10 21 21 15 12 25 24 22 26 -3 3 -12 -2 -21 -11 -9 -9 -22 -16
-28 -16 -12 1 42 50 54 50 4 0 12 -7 19 -15z m11380 -311 c8 -8 -23 -11 -117
-12 -70 0 -132 -1 -138 -3 -5 -1 -30 -3 -55 -4 -25 -2 -77 -6 -117 -9 -44 -4
-74 -2 -78 4 -8 12 -45 13 -45 1 0 -5 10 -7 22 -3 13 3 19 1 15 -5 -4 -7 -48
-9 -119 -7 -62 2 -171 4 -243 5 -126 1 -129 2 -85 15 77 23 939 39 960 18z
m-5420 -376 c6 -24 17 -68 25 -99 8 -30 15 -60 15 -66 0 -13 -30 -23 -85 -29
-22 -2 -42 -9 -44 -15 -2 -7 -7 -6 -13 2 -7 11 -11 11 -15 2 -10 -26 -21 -12
-16 20 8 56 93 227 113 227 5 0 14 -19 20 -42z"/>
<path d="M5687 5419 c-8 -13 -18 -34 -22 -47 -3 -12 -10 -20 -15 -17 -12 7
-19 -18 -13 -51 4 -20 2 -26 -5 -19 -5 6 -12 19 -14 30 -2 11 -11 21 -21 23
-10 2 -17 0 -16 -5 5 -30 -1 -35 -23 -22 -13 8 -30 13 -38 13 -8 -1 -20 -2
-25 -3 -12 -1 -17 -71 -6 -71 4 0 18 -26 31 -57 13 -32 35 -68 49 -81 l26 -22
-26 9 c-14 5 -32 6 -39 1 -10 -6 -9 -9 5 -11 18 -4 32 -59 14 -59 -5 0 -9 -7
-9 -15 0 -8 5 -15 10 -15 6 0 10 7 10 15 0 14 11 19 36 16 6 -1 17 6 24 14 11
13 10 19 -5 35 -10 11 -15 20 -10 20 4 0 15 -9 25 -20 23 -26 60 -16 60 16 0
18 6 24 23 24 58 1 398 38 404 43 10 11 -81 7 -260 -12 -92 -9 -170 -15 -172
-12 -3 2 -4 23 -4 45 1 38 2 39 8 11 6 -26 11 -30 36 -28 17 2 99 10 184 18
85 8 160 15 167 15 29 0 12 32 -51 98 -84 90 -161 132 -254 139 -65 5 -70 4
-84 -18z"/>
<path d="M5395 4205 c-5 -2 -83 -9 -172 -16 l-163 -12 0 -39 0 -40 58 6 c31 3
120 11 197 17 77 7 142 13 144 15 5 4 -40 74 -47 73 -4 0 -11 -2 -17 -4z"/>
<path d="M4840 4160 c-84 -9 -436 -40 -450 -40 -6 0 -2 -16 8 -36 l17 -36 70
6 c38 3 108 9 154 12 l84 7 -6 -154 c-8 -173 -12 -200 -33 -192 -10 4 -12 0
-8 -11 4 -11 1 -16 -11 -16 -9 0 -19 9 -22 20 -3 11 -11 20 -18 20 -21 0 -37
-27 -30 -51 4 -12 3 -19 -2 -16 -19 12 -29 -10 -25 -54 l4 -47 41 4 c23 2 37
2 30 -2 -8 -4 -9 -13 -1 -35 12 -36 47 -62 63 -49 6 5 29 12 51 16 21 3 42 8
46 11 4 2 49 6 100 9 51 3 104 7 118 9 14 3 68 7 120 10 109 6 218 14 252 20
13 2 106 6 207 10 102 3 187 8 190 9 3 2 69 7 146 11 77 4 143 9 148 12 12 7
9 253 -4 253 -6 0 -9 -7 -5 -15 4 -11 -2 -15 -28 -15 -42 0 -71 27 -124 116
-23 38 -53 83 -67 99 l-26 30 24 -40 c13 -22 43 -69 66 -104 22 -35 41 -76 41
-90 1 -14 7 -37 15 -51 21 -37 19 -40 -35 -40 -39 0 -53 -4 -62 -20 -16 -26
-32 -26 -18 0 10 18 7 19 -62 14 l-73 -6 -28 46 c-16 25 -32 46 -36 46 -16 0
-20 -13 -10 -31 8 -16 6 -19 -11 -19 -12 0 -18 4 -15 11 8 12 -23 49 -41 49
-18 0 -44 -39 -37 -56 3 -9 -2 -14 -16 -14 -13 0 -19 5 -15 14 9 24 -32 39
-66 24 -29 -13 -40 -28 -20 -28 6 0 10 -4 10 -10 0 -5 -9 -10 -21 -10 -14 0
-19 5 -16 14 3 9 -4 21 -19 31 -23 15 -25 15 -36 -10 -9 -19 -14 -22 -25 -14
-16 14 -17 -3 -1 -19 9 -9 7 -12 -9 -12 -16 0 -20 5 -16 19 3 14 -2 20 -23 25
-29 8 -44 -5 -44 -36 0 -13 -8 -18 -30 -18 -28 0 -35 8 -31 38 2 15 2 15 -38
1 -23 -8 -29 -14 -21 -24 12 -14 3 -25 -22 -25 -13 0 -18 7 -18 25 0 14 -4 25
-10 25 -5 0 -10 -17 -10 -39 0 -43 -12 -51 -83 -51 l-39 0 5 240 c4 180 3 240
-6 239 -7 -1 -46 -5 -87 -9z"/>
<path d="M5805 3378 c-77 -4 -156 -12 -175 -17 -19 -6 -54 -7 -77 -4 -28 4
-43 2 -43 -5 0 -7 -22 -11 -57 -10 -32 0 -65 0 -73 -1 -8 -1 -32 0 -52 3 -21
2 -38 0 -38 -5 0 -6 -20 -7 -50 -3 -35 5 -50 3 -50 -5 0 -8 -17 -9 -55 -5 -38
5 -55 3 -55 -5 0 -6 -9 -11 -20 -11 -16 0 -20 -7 -20 -36 l0 -37 68 6 c37 4
157 12 267 18 l200 12 40 44 c23 23 44 43 48 43 12 0 8 -18 -9 -34 -14 -15 1
-16 163 -14 98 0 164 3 146 5 -23 3 -30 8 -26 19 3 8 0 14 -7 14 -6 0 -8 5 -5
10 4 6 10 8 15 5 5 -3 11 -1 14 4 10 16 -4 17 -149 9z"/>
<path d="M3984 2563 l-142 -4 -6 -31 c-10 -50 -10 -50 62 -44 37 3 112 8 167
12 95 5 143 14 78 14 -26 0 -30 3 -26 20 3 11 14 20 24 20 11 0 19 5 19 10 0
6 -8 9 -17 8 -10 -1 -82 -4 -159 -5z"/>
<path d="M6797 2643 c3 -32 7 -59 8 -61 1 -1 136 2 300 9 201 7 302 14 309 22
6 7 12 25 13 40 1 28 0 28 -46 23 -78 -8 -588 -15 -551 -8 34 7 34 8 13 20
-44 24 -52 17 -46 -45z"/>
<path d="M11080 4238 c-14 -5 -36 -7 -50 -4 -26 5 -68 -18 -52 -28 9 -5 132
-46 140 -46 2 0 0 6 -4 13 -4 6 5 1 20 -12 17 -16 40 -25 65 -27 21 -1 43 -4
49 -8 5 -3 15 1 22 9 6 7 18 11 25 9 7 -3 23 4 34 15 20 20 20 20 0 26 -10 4
-17 10 -14 15 8 13 -37 20 -90 14 -39 -5 -58 -2 -85 13 -27 15 -42 18 -60 11z"/>
<path d="M10904 2721 c4 -5 0 -12 -6 -14 -9 -4 -9 -8 -3 -14 16 -13 19 -47 3
-37 -10 6 -10 5 -2 -7 18 -22 25 -67 13 -75 -8 -5 -8 -9 1 -14 8 -5 7 -9 -4
-13 -20 -8 -35 41 -17 52 13 8 5 41 -10 41 -5 0 -9 7 -9 16 0 8 -5 12 -10 9
-6 -4 -8 -15 -5 -25 8 -26 15 -60 17 -92 3 -33 3 -33 38 -8 15 11 30 17 33 14
3 -3 14 -1 24 5 15 8 20 7 20 -5 0 -12 -17 -19 -40 -15 -5 1 -6 -3 -2 -8 3 -6
12 -8 20 -4 10 3 15 -2 15 -16 0 -15 6 -21 21 -21 17 0 19 4 13 23 -18 57 -21
130 -4 135 5 2 2 14 -7 28 -12 19 -18 22 -24 12 -5 -7 -6 -21 -3 -30 3 -10 1
-18 -4 -18 -6 0 -15 17 -21 38 l-11 37 4 -47 c2 -27 0 -48 -5 -48 -5 0 -10 8
-11 18 -1 9 -2 24 -4 32 -1 8 -2 25 -3 38 -1 12 -6 22 -12 22 -5 0 -8 -4 -5
-9z"/>
<path d="M8565 4981 c-4 -8 -21 -11 -41 -9 -36 4 -40 -2 -23 -34 8 -15 8 -19
0 -14 -6 4 -11 2 -11 -3 0 -6 4 -11 8 -11 5 0 9 -13 10 -30 1 -30 31 -104 39
-96 3 2 -1 14 -7 26 -6 12 -9 24 -6 28 3 3 6 0 6 -6 0 -13 159 -5 174 9 10 8
-42 139 -55 139 -4 0 -11 -4 -14 -10 -10 -16 -47 -12 -60 7 -9 12 -14 13 -20
4z"/>
<path d="M1 4206 l1 -319 72 7 c39 3 85 8 101 10 17 2 73 7 125 11 52 4 96 8
97 9 2 1 -4 12 -12 23 -12 18 -22 20 -57 16 -43 -6 -43 -6 -25 14 17 20 17 21
-4 26 -30 8 -41 0 -33 -25 5 -18 3 -20 -20 -16 -14 3 -23 2 -20 -3 2 -4 -4 -7
-13 -7 -10 1 -29 -2 -43 -6 -14 -4 5 11 43 34 37 23 72 38 77 35 5 -3 16 -2
24 2 12 7 9 17 -19 58 -19 28 -34 55 -35 62 0 6 -3 13 -8 15 -4 2 -55 77 -114
168 -59 91 -114 174 -122 185 -14 18 -16 -9 -15 -299z"/>
<path d="M455 4391 c13 -20 45 -70 72 -111 26 -41 53 -81 60 -88 7 -8 18 -23
24 -35 7 -12 31 -52 55 -88 24 -36 48 -77 53 -92 10 -25 9 -26 -18 -21 -33 7
-46 -10 -49 -61 -2 -45 12 -63 37 -48 14 9 28 10 46 3 14 -5 29 -9 33 -8 4 1
15 -2 25 -7 9 -4 28 -5 42 -3 13 3 22 1 19 -3 -3 -5 4 -9 15 -9 11 0 23 5 27
12 4 7 3 8 -4 4 -7 -4 -12 -3 -12 2 0 5 -11 14 -25 20 -21 10 -25 9 -25 -3 0
-23 -41 -18 -47 5 -3 12 -17 27 -32 35 -17 10 -21 14 -9 15 11 0 15 6 11 19
-4 16 2 19 41 22 47 4 61 -6 50 -35 -3 -9 5 -15 27 -20 47 -9 71 -7 64 5 -10
16 4 59 19 59 17 0 29 -27 15 -36 -7 -4 -6 -10 1 -19 8 -10 7 -14 -2 -18 -18
-7 -5 -11 147 -43 72 -15 180 -39 240 -54 l110 -26 3 54 c2 30 1 56 -2 59 -3
3 -68 0 -144 -7 -144 -12 -182 -7 -182 25 0 7 -9 16 -19 20 -11 3 -25 12 -31
20 -26 31 11 47 135 60 22 2 55 7 73 10 17 3 32 2 32 -2 0 -4 22 -6 50 -5 27
2 48 7 46 10 -2 4 16 5 40 4 31 -3 48 1 61 13 9 10 19 13 20 8 2 -6 31 -6 81
2 42 7 78 9 80 4 4 -10 123 0 135 11 18 16 -51 20 -163 10 -63 -5 -134 -10
-157 -10 -40 0 -43 2 -44 28 l-1 27 -8 -30 c-6 -24 -15 -19 -11 7 0 4 -6 5
-14 2 -9 -4 -16 3 -21 20 -6 25 -24 36 -70 41 -20 2 -22 -1 -13 -16 13 -25 -6
-26 -21 -1 -11 16 -11 16 -6 0 3 -10 1 -20 -4 -23 -6 -4 -10 3 -10 14 0 11 4
22 10 26 5 3 6 13 3 22 -5 12 -3 14 7 8 8 -5 11 -3 8 6 -3 8 -15 16 -29 17
-13 2 -28 8 -34 13 -15 15 -52 10 -59 -7 -3 -8 -10 -12 -16 -9 -5 3 -10 1 -10
-5 0 -6 -5 -8 -11 -5 -7 5 -4 14 8 28 18 20 17 20 -5 15 -12 -4 -20 -2 -16 3
3 5 -3 9 -14 9 -10 0 -22 3 -26 7 -4 4 -31 13 -59 19 -29 6 -95 23 -147 37
-52 13 -181 47 -287 75 l-192 49 24 -36z"/>
<path d="M415 3804 c-11 -1 -94 -8 -185 -14 -237 -16 -230 -14 -230 -55 l0
-33 63 5 62 4 -55 -35 c-30 -20 -59 -37 -65 -39 -6 -3 -7 -8 -3 -12 4 -4 46
15 95 43 48 27 90 48 93 45 2 -2 -2 -8 -10 -13 -29 -18 -4 -18 35 0 21 10 48
16 60 13 11 -3 31 -5 45 -5 l25 0 -24 -13 c-13 -7 -33 -10 -44 -7 -14 4 -18 2
-12 -8 11 -18 -14 -30 -44 -19 -25 9 -25 8 -7 -6 17 -13 18 -15 3 -15 -9 0
-17 -3 -17 -7 0 -5 -45 -33 -100 -63 -55 -30 -100 -61 -100 -68 0 -10 13 -6
44 11 42 24 68 26 111 12 14 -4 13 -2 -4 8 -14 8 -32 13 -40 10 -9 -3 2 6 24
21 49 31 50 31 52 4 0 -13 -1 -17 -4 -10 -6 14 -29 16 -38 2 -3 -5 10 -16 30
-24 19 -8 35 -19 35 -23 0 -4 -48 -34 -105 -66 -58 -32 -105 -63 -105 -69 0
-5 26 5 58 23 151 85 188 103 221 106 55 4 61 6 55 15 -5 8 9 12 34 9 6 -1 12
3 12 9 0 6 12 4 31 -6 l31 -16 -33 -22 c-19 -13 -117 -69 -219 -126 -209 -116
-195 -108 -187 -116 3 -3 108 51 232 120 125 69 230 124 233 122 11 -7 74 23
68 32 -2 4 4 8 14 8 18 0 17 -7 -4 -35 -18 -24 -15 -39 7 -33 12 3 16 7 9 10
-19 6 -14 18 11 29 19 9 78 -1 66 -11 -7 -6 -320 -181 -466 -259 -77 -43 -148
-77 -157 -77 -13 0 -16 -14 -16 -88 l0 -87 86 0 c97 1 97 -1 -18 -62 -38 -19
-68 -40 -68 -45 0 -12 -8 -16 134 61 83 45 121 60 128 53 7 -7 18 -8 27 -3 9
5 24 7 34 6 9 -2 17 1 17 5 0 10 33 6 52 -6 7 -4 8 -3 4 4 -4 7 -3 12 3 12 6
0 8 8 4 18 -5 14 -3 13 11 -3 11 -14 15 -15 14 -5 -3 17 23 21 29 4 3 -10
-138 -94 -371 -220 -49 -26 -85 -49 -79 -51 6 -2 53 20 104 50 105 60 243 134
367 197 67 34 94 42 142 43 33 1 60 -1 60 -4 0 -3 12 -4 28 -1 18 3 24 1 17
-5 -5 -6 -170 -97 -365 -203 -394 -215 -365 -198 -358 -205 3 -3 151 73 328
170 389 212 418 227 430 220 4 -3 10 -2 12 2 1 5 39 6 82 3 l80 -5 -230 -126
c-126 -69 -336 -184 -466 -255 -131 -71 -238 -133 -238 -137 0 -5 28 7 63 26
94 53 677 366 801 431 85 45 111 54 122 45 11 -9 14 -7 14 9 0 23 -25 47 -39
38 -6 -4 -18 8 -27 26 -9 18 -22 36 -28 40 -6 4 -11 11 -11 15 -1 4 -11 24
-23 43 -23 37 -21 56 3 24 8 -10 14 -14 14 -9 0 6 -17 30 -39 55 -26 29 -37
37 -34 24 4 -15 0 -23 -13 -26 -10 -3 -27 -9 -38 -13 -14 -6 -12 -2 8 14 25
21 40 60 17 46 -6 -4 -7 -11 -4 -17 5 -7 1 -9 -9 -5 -11 4 -21 -1 -28 -14 -6
-11 -13 -18 -16 -15 -3 2 -14 -4 -26 -14 -11 -11 -24 -17 -29 -14 -5 3 -14 1
-21 -4 -7 -5 -28 -12 -47 -15 -32 -6 -30 -4 25 28 33 19 84 47 112 62 29 16
53 34 53 42 0 11 -4 11 -22 -1 -13 -8 -75 -42 -138 -75 -86 -46 -128 -62 -168
-65 -29 -3 -55 -1 -58 3 -3 5 -14 4 -25 -2 -11 -5 -29 -9 -41 -7 -13 2 50 42
186 117 173 96 227 131 202 131 -2 0 -84 -46 -183 -101 -274 -156 -283 -160
-381 -158 -45 1 -81 3 -80 4 8 8 136 80 348 198 129 71 237 131 239 133 1 1
-2 9 -9 16 -23 26 -130 197 -130 207 0 6 -4 11 -10 11 -5 0 -19 18 -30 40 -21
40 -27 43 -85 34z"/>
<path d="M8846 3102 c-3 -5 1 -15 9 -22 8 -7 15 -19 15 -26 0 -14 12 -18 39
-14 25 3 61 -10 58 -22 -1 -7 18 -18 43 -24 25 -7 41 -13 35 -14 -10 -1 43
-23 100 -41 16 -5 45 -9 64 -9 23 0 32 -4 28 -13 -3 -8 5 -14 24 -15 16 -1 29
2 29 8 0 5 -7 10 -16 10 -9 0 -24 10 -33 21 -14 18 -27 21 -71 20 -48 -1 -51
1 -35 13 18 13 17 15 -19 30 -21 9 -44 16 -50 16 -6 0 -27 10 -46 21 -19 12
-57 30 -85 39 -27 10 -57 21 -66 25 -10 3 -20 2 -23 -3z"/>
</g>
</svg>
